# MagicaVoxel @ Ephtracy

# group
o 

# material
mtllib map_Third-11.mtl
usemtl palette

# normals
vn -1 0 0
vn 1 0 0
vn 0 0 1
vn 0 0 -1
vn 0 -1 0
vn 0 1 0

# texcoords
vt 0.580078 0.5
vt 0.583984 0.5
vt 0.607422 0.5
vt 0.646484 0.5

# verts
v -0.1 1.2 0.1
v -0.1 1.2 -0.1
v -0.1 1.2 -0.3
v -0.1 1.3 0.1
v -0.1 1.3 0
v -0.1 1.3 -0.2
v -0.1 1.3 -0.3
v -0.1 1.4 0
v -0.1 1.4 -0.1
v -0.1 1.4 -0.2
v 0 1.1 0
v 0 1.1 -0.2
v 0 1.2 0
v 0 1.2 -0.1
v 0 1.2 -0.2
v 0 1.2 -0.3
v 0 1.2 -0.4
v 0 1.3 0.1
v 0 1.3 0
v 0 1.3 -0.2
v 0 1.3 -0.3
v 0 1.3 -0.4
v 0 1.4 0.1
v 0 1.4 0
v 0 1.4 -0.1
v 0 1.4 -0.2
v 0 1.4 -0.3
v 0 1.5 0
v 0 1.5 -0.1
v 0 1.5 -0.2
v 0.1 1.1 0.1
v 0.1 1.1 0
v 0.1 1.1 -0.2
v 0.1 1.1 -0.4
v 0.1 1.2 0.3
v 0.1 1.2 0.2
v 0.1 1.2 0.1
v 0.1 1.2 0
v 0.1 1.2 -0.2
v 0.1 1.2 -0.4
v 0.1 1.2 -0.5
v 0.1 1.3 0.3
v 0.1 1.3 0.2
v 0.1 1.3 0.1
v 0.1 1.3 -0.3
v 0.1 1.3 -0.4
v 0.1 1.3 -0.5
v 0.1 1.4 0.2
v 0.1 1.4 0.1
v 0.1 1.4 0
v 0.1 1.4 -0.2
v 0.1 1.4 -0.3
v 0.1 1.4 -0.4
v 0.1 1.5 0.1
v 0.1 1.5 0
v 0.1 1.5 -0.1
v 0.1 1.5 -0.2
v 0.1 1.5 -0.3
v 0.1 1.6 0
v 0.1 1.6 -0.2
v 0.2 1.1 0.2
v 0.2 1.1 0.1
v 0.2 1.1 -0.4
v 0.2 1.1 -0.5
v 0.2 1.2 0.2
v 0.2 1.2 0.1
v 0.2 1.2 -0.4
v 0.2 1.2 -0.5
v 0.2 1.3 0.3
v 0.2 1.3 0.2
v 0.2 1.3 -0.4
v 0.2 1.3 -0.5
v 0.2 1.4 0.3
v 0.2 1.4 0.2
v 0.2 1.4 0.1
v 0.2 1.4 -0.3
v 0.2 1.4 -0.4
v 0.2 1.4 -0.5
v 0.2 1.5 0.2
v 0.2 1.5 0.1
v 0.2 1.5 0
v 0.2 1.5 -0.2
v 0.2 1.5 -0.3
v 0.2 1.5 -0.4
v 0.2 1.6 0.1
v 0.2 1.6 0
v 0.2 1.6 -0.1
v 0.2 1.6 -0.2
v 0.2 1.6 -0.3
v 0.2 1.7 0
v 0.2 1.7 -0.1
v 0.2 1.7 -0.2
v 0.3 1.2 -0.5
v 0.3 1.2 -0.6
v 0.3 1.3 -0.5
v 0.3 1.3 -0.6
v 0.3 1.4 -0.4
v 0.3 1.4 -0.5
v 0.3 1.5 -0.3
v 0.3 1.5 -0.4
v 0.3 1.5 -0.5
v 0.3 1.6 -0.2
v 0.3 1.6 -0.3
v 0.3 1.6 -0.4
v 0.3 1.7 -0.2
v 0.3 1.7 -0.3
v 0.4 1.3 -0.5
v 0.4 1.3 -0.6
v 0.4 1.4 -0.5
v 0.4 1.4 -0.6
v 0.4 1.5 -0.4
v 0.4 1.5 -0.5
v 0.4 1.6 -0.4
v 0.4 1.6 -0.5
v 0.4 1.1 0.2
v 0.4 1.1 0.1
v 0.4 1.2 0.2
v 0.4 1.2 0.1
v 0.4 1.3 0.3
v 0.4 1.3 0.2
v 0.4 1.4 0.3
v 0.4 1.4 0.2
v 0.4 1.4 0.1
v 0.4 1.5 0.2
v 0.4 1.5 0.1
v 0.4 1.5 0
v 0.4 1.6 0.1
v 0.4 1.6 0
v 0.4 1.6 -0.1
v 0.4 1.7 0
v 0.4 1.7 -0.1
v 0.5 1.1 0.1
v 0.5 1.1 0
v 0.5 1.2 0.3
v 0.5 1.2 0.2
v 0.5 1.2 0.1
v 0.5 1.2 0
v 0.5 1.3 0.3
v 0.5 1.3 0.2
v 0.5 1.3 0.1
v 0.5 1.4 0.2
v 0.5 1.4 0.1
v 0.5 1.4 0
v 0.5 1.5 0.1
v 0.5 1.5 0
v 0.5 1.5 -0.1
v 0.5 1.5 -0.4
v 0.5 1.5 -0.5
v 0.5 1.6 0
v 0.5 1.6 -0.1
v 0.5 1.6 -0.3
v 0.5 1.6 -0.4
v 0.5 1.6 -0.5
v 0.5 1.7 -0.1
v 0.5 1.7 -0.3
v 0.6 1.1 0
v 0.6 1.1 -0.1
v 0.6 1.2 0.1
v 0.6 1.2 0
v 0.6 1.2 -0.1
v 0.6 1.3 0.1
v 0.6 1.3 0
v 0.6 1.3 -0.5
v 0.6 1.3 -0.6
v 0.6 1.4 0.1
v 0.6 1.4 0
v 0.6 1.4 -0.1
v 0.6 1.4 -0.4
v 0.6 1.4 -0.5
v 0.6 1.4 -0.6
v 0.6 1.5 0
v 0.6 1.5 -0.1
v 0.6 1.5 -0.2
v 0.6 1.5 -0.3
v 0.6 1.5 -0.4
v 0.6 1.5 -0.5
v 0.6 1.6 -0.1
v 0.6 1.6 -0.2
v 0.6 1.6 -0.3
v 0.6 1.6 -0.4
v 0.7 1.1 -0.1
v 0.7 1.1 -0.5
v 0.7 1.2 0
v 0.7 1.2 -0.1
v 0.7 1.2 -0.2
v 0.7 1.2 -0.3
v 0.7 1.2 -0.5
v 0.7 1.2 -0.6
v 0.7 1.3 0
v 0.7 1.3 -0.1
v 0.7 1.3 -0.2
v 0.7 1.3 -0.4
v 0.7 1.3 -0.5
v 0.7 1.3 -0.6
v 0.7 1.4 0
v 0.7 1.4 -0.1
v 0.7 1.4 -0.2
v 0.7 1.4 -0.3
v 0.7 1.4 -0.4
v 0.7 1.4 -0.5
v 0.7 1.5 -0.1
v 0.7 1.5 -0.2
v 0.7 1.5 -0.3
v 0.7 1.5 -0.4
v 0.7 1.6 -0.2
v 0.7 1.6 -0.3
v 0.8 1.2 -0.1
v 0.8 1.2 -0.2
v 0.8 1.2 -0.3
v 0.8 1.2 -0.5
v 0.8 1.3 -0.1
v 0.8 1.3 -0.2
v 0.8 1.3 -0.3
v 0.8 1.3 -0.4
v 0.8 1.3 -0.5
v 0.8 1.4 -0.2
v 0.8 1.4 -0.3
v 0.8 1.4 -0.4
v 0.1 1.2 0.3
v 0.1 1.3 0.3
v 0.2 1.3 0.3
v 0.2 1.4 0.3
v 0.3 1.3 0.3
v 0.3 1.4 0.3
v 0.4 1.3 0.3
v 0.4 1.4 0.3
v 0.5 1.2 0.3
v 0.5 1.3 0.3
v 0.1 1.3 0.2
v 0.1 1.4 0.2
v 0.2 1.1 0.2
v 0.2 1.2 0.2
v 0.2 1.3 0.2
v 0.2 1.4 0.2
v 0.2 1.5 0.2
v 0.3 1.4 0.2
v 0.3 1.5 0.2
v 0.4 1.1 0.2
v 0.4 1.2 0.2
v 0.4 1.3 0.2
v 0.4 1.4 0.2
v 0.4 1.5 0.2
v 0.5 1.3 0.2
v 0.5 1.4 0.2
v -0.1 1.2 0.1
v -0.1 1.3 0.1
v 0 1.3 0.1
v 0 1.4 0.1
v 0.1 1.1 0.1
v 0.1 1.2 0.1
v 0.1 1.3 0.1
v 0.1 1.4 0.1
v 0.1 1.5 0.1
v 0.2 1.1 0.1
v 0.2 1.2 0.1
v 0.2 1.4 0.1
v 0.2 1.5 0.1
v 0.2 1.6 0.1
v 0.3 1.5 0.1
v 0.4 1.1 0.1
v 0.4 1.2 0.1
v 0.4 1.4 0.1
v 0.4 1.5 0.1
v 0.4 1.6 0.1
v 0.5 1.1 0.1
v 0.5 1.2 0.1
v 0.5 1.3 0.1
v 0.5 1.4 0.1
v 0.5 1.5 0.1
v 0.6 1.2 0.1
v 0.6 1.3 0.1
v 0.6 1.4 0.1
v -0.1 1.3 0
v -0.1 1.4 0
v 0 1.1 0
v 0 1.2 0
v 0 1.3 0
v 0 1.4 0
v 0 1.5 0
v 0.1 1.1 0
v 0.1 1.2 0
v 0.1 1.4 0
v 0.1 1.5 0
v 0.1 1.6 0
v 0.2 1.5 0
v 0.2 1.6 0
v 0.2 1.7 0
v 0.3 1.6 0
v 0.3 1.7 0
v 0.4 1.5 0
v 0.4 1.6 0
v 0.4 1.7 0
v 0.5 1.1 0
v 0.5 1.2 0
v 0.5 1.4 0
v 0.5 1.5 0
v 0.5 1.6 0
v 0.6 1.1 0
v 0.6 1.2 0
v 0.6 1.3 0
v 0.6 1.4 0
v 0.6 1.5 0
v 0.7 1.2 0
v 0.7 1.3 0
v 0.7 1.4 0
v 0.4 1.6 -0.1
v 0.4 1.7 -0.1
v 0.5 1.5 -0.1
v 0.5 1.6 -0.1
v 0.5 1.7 -0.1
v 0.6 1.1 -0.1
v 0.6 1.2 -0.1
v 0.6 1.4 -0.1
v 0.6 1.5 -0.1
v 0.6 1.6 -0.1
v 0.7 1.1 -0.1
v 0.7 1.2 -0.1
v 0.7 1.3 -0.1
v 0.7 1.4 -0.1
v 0.7 1.5 -0.1
v 0.8 1.2 -0.1
v 0.8 1.3 -0.1
v 0.6 1.5 -0.2
v 0.6 1.6 -0.2
v 0.7 1.3 -0.2
v 0.7 1.4 -0.2
v 0.7 1.5 -0.2
v 0.7 1.6 -0.2
v 0.8 1.3 -0.2
v 0.8 1.4 -0.2
v -0.1 1.3 -0.2
v -0.1 1.4 -0.2
v 0 1.1 -0.2
v 0 1.2 -0.2
v 0 1.3 -0.2
v 0 1.4 -0.2
v 0 1.5 -0.2
v 0.1 1.1 -0.2
v 0.1 1.2 -0.2
v 0.1 1.4 -0.2
v 0.1 1.5 -0.2
v 0.1 1.6 -0.2
v 0.2 1.5 -0.2
v 0.2 1.6 -0.2
v 0.2 1.7 -0.2
v 0.3 1.6 -0.2
v 0.3 1.7 -0.2
v -0.1 1.2 -0.3
v -0.1 1.3 -0.3
v 0 1.2 -0.3
v 0 1.3 -0.3
v 0 1.4 -0.3
v 0.1 1.3 -0.3
v 0.1 1.4 -0.3
v 0.1 1.5 -0.3
v 0.2 1.4 -0.3
v 0.2 1.5 -0.3
v 0.2 1.6 -0.3
v 0.3 1.5 -0.3
v 0.3 1.6 -0.3
v 0.3 1.7 -0.3
v 0.4 1.6 -0.3
v 0.5 1.6 -0.3
v 0.5 1.7 -0.3
v 0.6 1.5 -0.3
v 0.6 1.6 -0.3
v 0.7 1.5 -0.3
v 0.7 1.6 -0.3
v 0 1.2 -0.4
v 0 1.3 -0.4
v 0.1 1.1 -0.4
v 0.1 1.2 -0.4
v 0.1 1.3 -0.4
v 0.1 1.4 -0.4
v 0.2 1.1 -0.4
v 0.2 1.2 -0.4
v 0.2 1.3 -0.4
v 0.2 1.4 -0.4
v 0.2 1.5 -0.4
v 0.3 1.4 -0.4
v 0.3 1.5 -0.4
v 0.3 1.6 -0.4
v 0.4 1.5 -0.4
v 0.4 1.6 -0.4
v 0.5 1.5 -0.4
v 0.5 1.6 -0.4
v 0.6 1.4 -0.4
v 0.6 1.5 -0.4
v 0.6 1.6 -0.4
v 0.7 1.3 -0.4
v 0.7 1.4 -0.4
v 0.7 1.5 -0.4
v 0.8 1.3 -0.4
v 0.8 1.4 -0.4
v 0.1 1.2 -0.5
v 0.1 1.3 -0.5
v 0.2 1.1 -0.5
v 0.2 1.2 -0.5
v 0.2 1.3 -0.5
v 0.2 1.4 -0.5
v 0.3 1.2 -0.5
v 0.3 1.3 -0.5
v 0.3 1.4 -0.5
v 0.3 1.5 -0.5
v 0.4 1.3 -0.5
v 0.4 1.4 -0.5
v 0.4 1.5 -0.5
v 0.4 1.6 -0.5
v 0.5 1.2 -0.5
v 0.5 1.4 -0.5
v 0.5 1.5 -0.5
v 0.5 1.6 -0.5
v 0.6 1.3 -0.5
v 0.6 1.4 -0.5
v 0.6 1.5 -0.5
v 0.7 1.1 -0.5
v 0.7 1.2 -0.5
v 0.7 1.3 -0.5
v 0.7 1.4 -0.5
v 0.8 1.2 -0.5
v 0.8 1.3 -0.5
v 0.3 1.2 -0.6
v 0.3 1.3 -0.6
v 0.4 1.3 -0.6
v 0.4 1.4 -0.6
v 0.5 1.2 -0.6
v 0.5 1.4 -0.6
v 0.6 1.3 -0.6
v 0.6 1.4 -0.6
v 0.7 1.2 -0.6
v 0.7 1.3 -0.6
v 0.2 1.1 0.2
v 0.4 1.1 0.2
v 0.1 1.1 0.1
v 0.2 1.1 0.1
v 0.4 1.1 0.1
v 0.5 1.1 0.1
v 0 1.1 0
v 0.1 1.1 0
v 0.5 1.1 0
v 0.6 1.1 0
v 0.6 1.1 -0.1
v 0.7 1.1 -0.1
v 0 1.1 -0.2
v 0.1 1.1 -0.2
v 0.1 1.1 -0.4
v 0.2 1.1 -0.4
v 0.2 1.1 -0.5
v 0.7 1.1 -0.5
v 0.1 1.2 0.3
v 0.5 1.2 0.3
v 0.1 1.2 0.2
v 0.2 1.2 0.2
v 0.4 1.2 0.2
v 0.5 1.2 0.2
v -0.1 1.2 0.1
v 0.1 1.2 0.1
v 0.2 1.2 0.1
v 0.4 1.2 0.1
v 0.5 1.2 0.1
v 0.6 1.2 0.1
v 0 1.2 0
v 0.1 1.2 0
v 0.5 1.2 0
v 0.6 1.2 0
v 0.7 1.2 0
v -0.1 1.2 -0.1
v 0 1.2 -0.1
v 0.6 1.2 -0.1
v 0.7 1.2 -0.1
v 0.8 1.2 -0.1
v 0 1.2 -0.2
v 0.1 1.2 -0.2
v 0.7 1.2 -0.2
v 0.8 1.2 -0.2
v -0.1 1.2 -0.3
v 0 1.2 -0.3
v 0.7 1.2 -0.3
v 0.8 1.2 -0.3
v 0 1.2 -0.4
v 0.1 1.2 -0.4
v 0.2 1.2 -0.4
v 0.1 1.2 -0.5
v 0.2 1.2 -0.5
v 0.3 1.2 -0.5
v 0.5 1.2 -0.5
v 0.7 1.2 -0.5
v 0.8 1.2 -0.5
v 0.3 1.2 -0.6
v 0.5 1.2 -0.6
v 0.7 1.2 -0.6
v 0.1 1.3 0.3
v 0.2 1.3 0.3
v 0.4 1.3 0.3
v 0.5 1.3 0.3
v 0.1 1.3 0.2
v 0.2 1.3 0.2
v 0.4 1.3 0.2
v 0.5 1.3 0.2
v -0.1 1.3 0.1
v 0 1.3 0.1
v -0.1 1.3 0
v 0 1.3 0
v 0.7 1.3 -0.1
v 0.8 1.3 -0.1
v -0.1 1.3 -0.2
v 0 1.3 -0.2
v 0.7 1.3 -0.2
v 0.8 1.3 -0.2
v -0.1 1.3 -0.3
v 0 1.3 -0.3
v 0.1 1.3 -0.3
v 0 1.3 -0.4
v 0.1 1.3 -0.4
v 0.2 1.3 -0.4
v 0.7 1.3 -0.4
v 0.8 1.3 -0.4
v 0.1 1.3 -0.5
v 0.2 1.3 -0.5
v 0.3 1.3 -0.5
v 0.4 1.3 -0.5
v 0.6 1.3 -0.5
v 0.7 1.3 -0.5
v 0.8 1.3 -0.5
v 0.3 1.3 -0.6
v 0.4 1.3 -0.6
v 0.6 1.3 -0.6
v 0.7 1.3 -0.6
v 0.2 1.4 0.3
v 0.3 1.4 0.3
v 0.4 1.4 0.3
v 0.1 1.4 0.2
v 0.2 1.4 0.2
v 0.3 1.4 0.2
v 0.4 1.4 0.2
v 0.5 1.4 0.2
v 0 1.4 0.1
v 0.1 1.4 0.1
v 0.2 1.4 0.1
v 0.4 1.4 0.1
v 0.5 1.4 0.1
v 0.6 1.4 0.1
v -0.1 1.4 0
v 0 1.4 0
v 0.1 1.4 0
v 0.5 1.4 0
v 0.6 1.4 0
v 0.7 1.4 0
v -0.1 1.4 -0.1
v 0 1.4 -0.1
v 0.6 1.4 -0.1
v 0.7 1.4 -0.1
v -0.1 1.4 -0.2
v 0 1.4 -0.2
v 0.1 1.4 -0.2
v 0.7 1.4 -0.2
v 0.8 1.4 -0.2
v 0 1.4 -0.3
v 0.1 1.4 -0.3
v 0.2 1.4 -0.3
v 0.7 1.4 -0.3
v 0.8 1.4 -0.3
v 0.1 1.4 -0.4
v 0.2 1.4 -0.4
v 0.3 1.4 -0.4
v 0.6 1.4 -0.4
v 0.7 1.4 -0.4
v 0.8 1.4 -0.4
v 0.2 1.4 -0.5
v 0.3 1.4 -0.5
v 0.4 1.4 -0.5
v 0.5 1.4 -0.5
v 0.6 1.4 -0.5
v 0.7 1.4 -0.5
v 0.4 1.4 -0.6
v 0.5 1.4 -0.6
v 0.6 1.4 -0.6
v 0.2 1.5 0.2
v 0.3 1.5 0.2
v 0.4 1.5 0.2
v 0.1 1.5 0.1
v 0.2 1.5 0.1
v 0.3 1.5 0.1
v 0.4 1.5 0.1
v 0.5 1.5 0.1
v 0 1.5 0
v 0.1 1.5 0
v 0.2 1.5 0
v 0.4 1.5 0
v 0.5 1.5 0
v 0.6 1.5 0
v 0 1.5 -0.1
v 0.1 1.5 -0.1
v 0.5 1.5 -0.1
v 0.6 1.5 -0.1
v 0.7 1.5 -0.1
v 0 1.5 -0.2
v 0.1 1.5 -0.2
v 0.2 1.5 -0.2
v 0.6 1.5 -0.2
v 0.7 1.5 -0.2
v 0.1 1.5 -0.3
v 0.2 1.5 -0.3
v 0.3 1.5 -0.3
v 0.6 1.5 -0.3
v 0.7 1.5 -0.3
v 0.2 1.5 -0.4
v 0.3 1.5 -0.4
v 0.4 1.5 -0.4
v 0.5 1.5 -0.4
v 0.6 1.5 -0.4
v 0.7 1.5 -0.4
v 0.3 1.5 -0.5
v 0.4 1.5 -0.5
v 0.5 1.5 -0.5
v 0.6 1.5 -0.5
v 0.2 1.6 0.1
v 0.4 1.6 0.1
v 0.1 1.6 0
v 0.2 1.6 0
v 0.3 1.6 0
v 0.4 1.6 0
v 0.5 1.6 0
v 0.2 1.6 -0.1
v 0.4 1.6 -0.1
v 0.5 1.6 -0.1
v 0.6 1.6 -0.1
v 0.1 1.6 -0.2
v 0.2 1.6 -0.2
v 0.3 1.6 -0.2
v 0.6 1.6 -0.2
v 0.7 1.6 -0.2
v 0.2 1.6 -0.3
v 0.3 1.6 -0.3
v 0.4 1.6 -0.3
v 0.5 1.6 -0.3
v 0.6 1.6 -0.3
v 0.7 1.6 -0.3
v 0.3 1.6 -0.4
v 0.4 1.6 -0.4
v 0.5 1.6 -0.4
v 0.6 1.6 -0.4
v 0.4 1.6 -0.5
v 0.5 1.6 -0.5
v 0.2 1.7 0
v 0.3 1.7 0
v 0.4 1.7 0
v 0.2 1.7 -0.1
v 0.3 1.7 -0.1
v 0.4 1.7 -0.1
v 0.5 1.7 -0.1
v 0.2 1.7 -0.2
v 0.3 1.7 -0.2
v 0.4 1.7 -0.2
v 0.3 1.7 -0.3
v 0.5 1.7 -0.3

# faces
f 4/4/1 2/4/1 1/4/1
f 5/4/1 2/4/1 4/4/1
f 6/2/1 3/2/1 2/2/1
f 7/2/1 3/2/1 6/2/1
f 8/4/1 2/4/1 5/4/1
f 9/2/1 6/2/1 2/2/1
f 9/4/1 2/4/1 8/4/1
f 10/2/1 6/2/1 9/2/1
f 13/4/1 12/4/1 11/4/1
f 14/4/1 12/4/1 13/4/1
f 15/4/1 12/4/1 14/4/1
f 21/2/1 17/2/1 16/2/1
f 22/2/1 17/2/1 21/2/1
f 23/2/1 19/2/1 18/2/1
f 24/2/1 19/2/1 23/2/1
f 26/4/1 21/4/1 20/4/1
f 27/4/1 21/4/1 26/4/1
f 28/4/1 25/4/1 24/4/1
f 29/2/1 26/2/1 25/2/1
f 29/4/1 25/4/1 28/4/1
f 30/2/1 26/2/1 29/2/1
f 37/4/1 32/4/1 31/4/1
f 38/4/1 32/4/1 37/4/1
f 39/4/1 34/4/1 33/4/1
f 40/4/1 34/4/1 39/4/1
f 42/2/1 36/2/1 35/2/1
f 43/4/1 37/4/1 36/4/1
f 43/2/1 36/2/1 42/2/1
f 44/4/1 37/4/1 43/4/1
f 46/2/1 41/2/1 40/2/1
f 47/2/1 41/2/1 46/2/1
f 48/4/1 44/4/1 43/4/1
f 49/4/1 44/4/1 48/4/1
f 52/4/1 46/4/1 45/4/1
f 53/4/1 46/4/1 52/4/1
f 54/2/1 50/2/1 49/2/1
f 55/2/1 50/2/1 54/2/1
f 57/2/1 52/2/1 51/2/1
f 58/2/1 52/2/1 57/2/1
f 59/2/1 56/2/1 55/2/1
f 59/2/1 57/2/1 56/2/1
f 60/2/1 57/2/1 59/2/1
f 65/4/1 62/4/1 61/4/1
f 66/4/1 62/4/1 65/4/1
f 67/4/1 64/4/1 63/4/1
f 68/4/1 64/4/1 67/4/1
f 73/4/1 70/4/1 69/4/1
f 74/4/1 70/4/1 73/4/1
f 77/4/1 72/4/1 71/4/1
f 78/4/1 72/4/1 77/4/1
f 79/2/1 75/2/1 74/2/1
f 80/2/1 75/2/1 79/2/1
f 83/2/1 77/2/1 76/2/1
f 84/2/1 77/2/1 83/2/1
f 85/2/1 81/2/1 80/2/1
f 86/2/1 81/2/1 85/2/1
f 88/4/1 83/4/1 82/4/1
f 89/4/1 83/4/1 88/4/1
f 90/4/1 87/4/1 86/4/1
f 91/2/1 88/2/1 87/2/1
f 91/4/1 87/4/1 90/4/1
f 92/2/1 88/2/1 91/2/1
f 95/2/1 94/2/1 93/2/1
f 96/2/1 94/2/1 95/2/1
f 100/2/1 98/2/1 97/2/1
f 101/2/1 98/2/1 100/2/1
f 103/4/1 100/4/1 99/4/1
f 104/4/1 100/4/1 103/4/1
f 105/2/1 103/2/1 102/2/1
f 106/2/1 103/2/1 105/2/1
f 109/2/1 108/2/1 107/2/1
f 110/2/1 108/2/1 109/2/1
f 113/2/1 112/2/1 111/2/1
f 114/2/1 112/2/1 113/2/1
f 115/4/2 116/4/2 117/4/2
f 117/4/2 116/4/2 118/4/2
f 119/1/2 120/1/2 121/1/2
f 121/1/2 120/1/2 122/1/2
f 122/1/2 123/1/2 124/1/2
f 124/1/2 123/1/2 125/1/2
f 125/2/2 126/2/2 127/2/2
f 127/2/2 126/2/2 128/2/2
f 128/2/2 129/2/2 130/2/2
f 130/2/2 129/2/2 131/2/2
f 132/4/2 133/4/2 136/4/2
f 136/4/2 133/4/2 137/4/2
f 134/2/2 135/2/2 138/2/2
f 135/4/2 136/4/2 139/4/2
f 138/2/2 135/2/2 139/2/2
f 139/4/2 136/4/2 140/4/2
f 139/4/2 140/4/2 141/4/2
f 141/4/2 140/4/2 142/4/2
f 142/2/2 143/2/2 144/2/2
f 144/2/2 143/2/2 145/2/2
f 145/4/2 146/4/2 149/4/2
f 149/4/2 146/4/2 150/4/2
f 147/2/2 148/2/2 152/2/2
f 152/2/2 148/2/2 153/2/2
f 150/2/2 151/2/2 154/2/2
f 154/2/2 151/2/2 155/2/2
f 156/4/2 157/4/2 159/4/2
f 159/4/2 157/4/2 160/4/2
f 158/4/2 159/4/2 161/4/2
f 161/4/2 159/4/2 162/4/2
f 161/1/2 162/1/2 165/1/2
f 165/1/2 162/1/2 166/1/2
f 163/4/2 164/4/2 169/4/2
f 169/4/2 164/4/2 170/4/2
f 166/1/2 167/1/2 171/1/2
f 171/1/2 167/1/2 172/1/2
f 168/4/2 169/4/2 175/4/2
f 175/4/2 169/4/2 176/4/2
f 172/2/2 173/2/2 177/2/2
f 177/2/2 173/2/2 178/2/2
f 174/2/2 175/2/2 179/2/2
f 179/2/2 175/2/2 180/2/2
f 181/4/2 182/4/2 184/4/2
f 184/4/2 182/4/2 185/4/2
f 185/4/2 182/4/2 186/4/2
f 186/4/2 182/4/2 187/4/2
f 183/4/2 184/4/2 189/4/2
f 189/4/2 184/4/2 190/4/2
f 187/4/2 188/4/2 193/4/2
f 193/4/2 188/4/2 194/4/2
f 189/1/2 190/1/2 195/1/2
f 190/4/2 191/4/2 196/4/2
f 195/1/2 190/1/2 196/1/2
f 196/4/2 191/4/2 197/4/2
f 192/4/2 193/4/2 199/4/2
f 199/4/2 193/4/2 200/4/2
f 196/1/2 197/1/2 201/1/2
f 197/4/2 198/4/2 202/4/2
f 201/1/2 197/1/2 202/1/2
f 198/2/2 199/2/2 203/2/2
f 202/4/2 198/4/2 203/4/2
f 203/2/2 199/2/2 204/2/2
f 202/4/2 203/4/2 205/4/2
f 205/4/2 203/4/2 206/4/2
f 207/4/2 208/4/2 211/4/2
f 208/2/2 209/2/2 212/2/2
f 211/4/2 208/4/2 212/4/2
f 209/4/2 210/4/2 213/4/2
f 212/2/2 209/2/2 213/2/2
f 213/4/2 210/4/2 214/4/2
f 214/4/2 210/4/2 215/4/2
f 212/4/2 213/4/2 216/4/2
f 213/3/2 214/3/2 217/3/2
f 216/4/2 213/4/2 217/4/2
f 217/3/2 214/3/2 218/3/2
f 221/2/3 220/2/3 219/2/3
f 223/2/3 221/2/3 219/2/3
f 223/4/3 222/4/3 221/4/3
f 224/4/3 222/4/3 223/4/3
f 225/2/3 223/2/3 219/2/3
f 225/1/3 224/1/3 223/1/3
f 226/1/3 224/1/3 225/1/3
f 227/2/3 225/2/3 219/2/3
f 228/2/3 225/2/3 227/2/3
f 233/4/3 230/4/3 229/4/3
f 234/4/3 230/4/3 233/4/3
f 236/2/3 235/2/3 234/2/3
f 237/2/3 235/2/3 236/2/3
f 238/4/3 232/4/3 231/4/3
f 239/4/3 232/4/3 238/4/3
f 241/1/3 237/1/3 236/1/3
f 242/1/3 237/1/3 241/1/3
f 243/4/3 241/4/3 240/4/3
f 244/4/3 241/4/3 243/4/3
f 247/4/3 246/4/3 245/4/3
f 250/4/3 247/4/3 245/4/3
f 251/2/3 248/2/3 247/2/3
f 251/4/3 247/4/3 250/4/3
f 252/2/3 248/2/3 251/2/3
f 254/4/3 250/4/3 249/4/3
f 255/4/3 250/4/3 254/4/3
f 256/2/3 253/2/3 252/2/3
f 257/2/3 253/2/3 256/2/3
f 259/2/3 258/2/3 257/2/3
f 263/2/3 258/2/3 259/2/3
f 264/2/3 258/2/3 263/2/3
f 265/4/3 261/4/3 260/4/3
f 266/4/3 261/4/3 265/4/3
f 268/2/3 263/2/3 262/2/3
f 269/2/3 263/2/3 268/2/3
f 270/4/3 267/4/3 266/4/3
f 271/1/3 268/1/3 267/1/3
f 271/4/3 267/4/3 270/4/3
f 272/1/3 268/1/3 271/1/3
f 277/4/3 274/4/3 273/4/3
f 278/4/3 274/4/3 277/4/3
f 280/4/3 276/4/3 275/4/3
f 281/4/3 276/4/3 280/4/3
f 282/4/3 279/4/3 278/4/3
f 283/4/3 279/4/3 282/4/3
f 285/2/3 284/2/3 283/2/3
f 286/2/3 284/2/3 285/2/3
f 288/4/3 287/4/3 286/4/3
f 289/4/3 287/4/3 288/4/3
f 291/2/3 289/2/3 288/2/3
f 292/2/3 289/2/3 291/2/3
f 296/4/3 291/4/3 290/4/3
f 297/4/3 291/4/3 296/4/3
f 298/4/3 294/4/3 293/4/3
f 299/4/3 294/4/3 298/4/3
f 301/1/3 296/1/3 295/1/3
f 302/1/3 296/1/3 301/1/3
f 303/4/3 300/4/3 299/4/3
f 304/1/3 301/1/3 300/1/3
f 304/4/3 300/4/3 303/4/3
f 305/1/3 301/1/3 304/1/3
f 309/2/3 307/2/3 306/2/3
f 310/2/3 307/2/3 309/2/3
f 314/2/3 309/2/3 308/2/3
f 315/2/3 309/2/3 314/2/3
f 316/4/3 312/4/3 311/4/3
f 317/4/3 312/4/3 316/4/3
f 319/1/3 314/1/3 313/1/3
f 320/1/3 314/1/3 319/1/3
f 321/4/3 318/4/3 317/4/3
f 322/4/3 318/4/3 321/4/3
f 327/4/3 324/4/3 323/4/3
f 328/4/3 324/4/3 327/4/3
f 329/4/3 326/4/3 325/4/3
f 330/4/3 326/4/3 329/4/3
f 331/2/4 332/2/4 335/2/4
f 335/2/4 332/2/4 336/2/4
f 333/4/4 334/4/4 338/4/4
f 338/4/4 334/4/4 339/4/4
f 336/2/4 337/2/4 340/2/4
f 340/2/4 337/2/4 341/2/4
f 341/2/4 342/2/4 343/2/4
f 343/2/4 342/2/4 344/2/4
f 344/2/4 345/2/4 346/2/4
f 346/2/4 345/2/4 347/2/4
f 348/2/4 349/2/4 350/2/4
f 350/2/4 349/2/4 351/2/4
f 351/4/4 352/4/4 353/4/4
f 353/4/4 352/4/4 354/4/4
f 354/2/4 355/2/4 356/2/4
f 356/2/4 355/2/4 357/2/4
f 357/4/4 358/4/4 359/4/4
f 359/4/4 358/4/4 360/4/4
f 360/2/4 361/2/4 362/2/4
f 362/2/4 361/2/4 363/2/4
f 363/2/4 361/2/4 364/2/4
f 365/4/4 366/4/4 367/4/4
f 367/4/4 366/4/4 368/4/4
f 369/2/4 370/2/4 372/2/4
f 372/2/4 370/2/4 373/2/4
f 371/4/4 372/4/4 375/4/4
f 375/4/4 372/4/4 376/4/4
f 373/4/4 374/4/4 377/4/4
f 377/4/4 374/4/4 378/4/4
f 378/2/4 379/2/4 380/2/4
f 380/2/4 379/2/4 381/2/4
f 381/4/4 382/4/4 383/4/4
f 383/4/4 382/4/4 384/4/4
f 385/2/4 386/2/4 388/2/4
f 388/2/4 386/2/4 389/2/4
f 387/2/4 388/2/4 391/2/4
f 391/2/4 388/2/4 392/2/4
f 390/3/4 391/3/4 393/3/4
f 393/3/4 391/3/4 394/3/4
f 395/2/4 396/2/4 398/2/4
f 398/2/4 396/2/4 399/2/4
f 397/4/4 398/4/4 401/4/4
f 398/2/4 399/2/4 401/2/4
f 399/4/4 400/4/4 402/4/4
f 401/2/4 399/2/4 402/2/4
f 402/4/4 400/4/4 403/4/4
f 402/4/4 403/4/4 405/4/4
f 403/2/4 404/2/4 406/2/4
f 405/4/4 403/4/4 406/4/4
f 406/2/4 404/2/4 407/2/4
f 397/4/4 401/4/4 409/4/4
f 407/2/4 408/2/4 410/2/4
f 406/2/4 407/2/4 410/2/4
f 410/2/4 408/2/4 411/2/4
f 411/2/4 408/2/4 412/2/4
f 410/4/4 411/4/4 414/4/4
f 414/4/4 411/4/4 415/4/4
f 397/4/4 409/4/4 416/4/4
f 416/4/4 409/4/4 417/4/4
f 413/4/4 414/4/4 418/4/4
f 418/4/4 414/4/4 419/4/4
f 417/4/4 418/4/4 420/4/4
f 420/4/4 418/4/4 421/4/4
f 422/2/4 423/2/4 424/2/4
f 422/2/4 424/2/4 426/2/4
f 424/2/4 425/2/4 426/2/4
f 426/2/4 425/2/4 427/2/4
f 426/4/4 427/4/4 428/4/4
f 428/4/4 427/4/4 429/4/4
f 426/4/4 428/4/4 430/4/4
f 430/4/4 428/4/4 431/4/4
f 435/4/5 433/4/5 432/4/5
f 436/4/5 433/4/5 435/4/5
f 439/4/5 435/4/5 434/4/5
f 439/4/5 437/4/5 436/4/5
f 439/4/5 436/4/5 435/4/5
f 440/4/5 437/4/5 439/4/5
f 442/4/5 439/4/5 438/4/5
f 442/4/5 441/4/5 440/4/5
f 442/4/5 440/4/5 439/4/5
f 444/4/5 442/4/5 438/4/5
f 444/4/5 443/4/5 442/4/5
f 445/4/5 443/4/5 444/4/5
f 446/4/5 443/4/5 445/4/5
f 447/4/5 443/4/5 446/4/5
f 448/4/5 443/4/5 447/4/5
f 449/4/5 443/4/5 448/4/5
f 452/2/5 451/2/5 450/2/5
f 453/2/5 451/2/5 452/2/5
f 454/2/5 451/2/5 453/2/5
f 455/2/5 451/2/5 454/2/5
f 457/4/5 453/4/5 452/4/5
f 458/4/5 453/4/5 457/4/5
f 459/4/5 455/4/5 454/4/5
f 460/4/5 455/4/5 459/4/5
f 462/4/5 457/4/5 456/4/5
f 463/4/5 457/4/5 462/4/5
f 464/4/5 461/4/5 460/4/5
f 465/4/5 461/4/5 464/4/5
f 467/4/5 462/4/5 456/4/5
f 468/4/5 462/4/5 467/4/5
f 469/4/5 466/4/5 465/4/5
f 470/4/5 466/4/5 469/4/5
f 472/2/5 468/2/5 467/2/5
f 474/4/5 471/4/5 470/4/5
f 475/4/5 471/4/5 474/4/5
f 476/2/5 473/2/5 472/2/5
f 476/2/5 472/2/5 467/2/5
f 477/2/5 473/2/5 476/2/5
f 478/2/5 475/2/5 474/2/5
f 479/2/5 475/2/5 478/2/5
f 480/2/5 473/2/5 477/2/5
f 481/2/5 473/2/5 480/2/5
f 483/2/5 482/2/5 481/2/5
f 484/2/5 482/2/5 483/2/5
f 487/4/5 479/4/5 478/4/5
f 488/4/5 479/4/5 487/4/5
f 489/2/5 486/2/5 485/2/5
f 490/4/5 487/4/5 486/4/5
f 490/2/5 486/2/5 489/2/5
f 491/4/5 487/4/5 490/4/5
f 492/2/6 493/2/6 496/2/6
f 496/2/6 493/2/6 497/2/6
f 494/2/6 495/2/6 498/2/6
f 498/2/6 495/2/6 499/2/6
f 500/4/6 501/4/6 502/4/6
f 502/4/6 501/4/6 503/4/6
f 504/4/6 505/4/6 508/4/6
f 508/4/6 505/4/6 509/4/6
f 506/2/6 507/2/6 510/2/6
f 510/2/6 507/2/6 511/2/6
f 511/2/6 512/2/6 513/2/6
f 513/2/6 512/2/6 514/2/6
f 514/2/6 515/2/6 518/2/6
f 518/2/6 515/2/6 519/2/6
f 516/4/6 517/4/6 523/4/6
f 523/4/6 517/4/6 524/4/6
f 520/2/6 521/2/6 525/2/6
f 525/2/6 521/2/6 526/2/6
f 522/4/6 523/4/6 527/4/6
f 527/4/6 523/4/6 528/4/6
f 529/4/6 530/4/6 533/4/6
f 530/1/6 531/1/6 534/1/6
f 533/4/6 530/4/6 534/4/6
f 534/1/6 531/1/6 535/1/6
f 532/4/6 533/4/6 538/4/6
f 538/4/6 533/4/6 539/4/6
f 535/4/6 536/4/6 540/4/6
f 540/4/6 536/4/6 541/4/6
f 537/2/6 538/2/6 544/2/6
f 544/2/6 538/2/6 545/2/6
f 541/1/6 542/1/6 546/1/6
f 546/1/6 542/1/6 547/1/6
f 543/4/6 544/4/6 549/4/6
f 549/4/6 544/4/6 550/4/6
f 547/1/6 548/1/6 551/1/6
f 551/1/6 548/1/6 552/1/6
f 549/2/6 550/2/6 553/2/6
f 553/2/6 550/2/6 554/2/6
f 554/4/6 555/4/6 558/4/6
f 558/4/6 555/4/6 559/4/6
f 556/4/6 557/4/6 561/4/6
f 561/4/6 557/4/6 562/4/6
f 559/4/6 560/4/6 563/4/6
f 563/4/6 560/4/6 564/4/6
f 561/3/6 562/3/6 567/3/6
f 567/3/6 562/3/6 568/3/6
f 564/4/6 565/4/6 569/4/6
f 569/4/6 565/4/6 570/4/6
f 566/4/6 567/4/6 573/4/6
f 573/4/6 567/4/6 574/4/6
f 571/2/6 572/2/6 575/2/6
f 572/4/6 573/4/6 576/4/6
f 575/2/6 572/2/6 576/2/6
f 576/4/6 573/4/6 577/4/6
f 578/2/6 579/2/6 582/2/6
f 579/1/6 580/1/6 583/1/6
f 582/2/6 579/2/6 583/2/6
f 583/1/6 580/1/6 584/1/6
f 581/2/6 582/2/6 587/2/6
f 587/2/6 582/2/6 588/2/6
f 584/2/6 585/2/6 589/2/6
f 589/2/6 585/2/6 590/2/6
f 586/4/6 587/4/6 592/4/6
f 592/4/6 587/4/6 593/4/6
f 590/1/6 591/1/6 594/1/6
f 594/1/6 591/1/6 595/1/6
f 592/2/6 593/2/6 597/2/6
f 597/2/6 593/2/6 598/2/6
f 595/1/6 596/1/6 600/1/6
f 600/1/6 596/1/6 601/1/6
f 598/2/6 599/2/6 602/2/6
f 602/2/6 599/2/6 603/2/6
f 603/2/6 604/2/6 607/2/6
f 607/2/6 604/2/6 608/2/6
f 605/2/6 606/2/6 611/2/6
f 611/2/6 606/2/6 612/2/6
f 608/2/6 609/2/6 613/2/6
f 613/2/6 609/2/6 614/2/6
f 610/4/6 611/4/6 615/4/6
f 615/4/6 611/4/6 616/4/6
f 617/2/6 618/2/6 620/2/6
f 620/2/6 618/2/6 621/2/6
f 621/2/6 618/2/6 622/2/6
f 619/2/6 620/2/6 624/2/6
f 622/4/6 623/4/6 625/4/6
f 625/4/6 623/4/6 626/4/6
f 619/2/6 624/2/6 628/2/6
f 628/2/6 624/2/6 629/2/6
f 626/2/6 627/2/6 631/2/6
f 629/4/6 630/4/6 633/4/6
f 633/4/6 630/4/6 634/4/6
f 626/2/6 631/2/6 636/2/6
f 631/4/6 632/4/6 637/4/6
f 636/2/6 631/2/6 637/2/6
f 637/4/6 632/4/6 638/4/6
f 634/4/6 635/4/6 639/4/6
f 635/2/6 636/2/6 640/2/6
f 639/4/6 635/4/6 640/4/6
f 636/2/6 637/2/6 640/2/6
f 640/2/6 637/2/6 641/2/6
f 641/2/6 637/2/6 642/2/6
f 640/2/6 641/2/6 643/2/6
f 643/2/6 641/2/6 644/2/6
f 645/4/6 646/4/6 648/4/6
f 646/2/6 647/2/6 649/2/6
f 648/4/6 646/4/6 649/4/6
f 649/2/6 647/2/6 650/2/6
f 648/2/6 649/2/6 652/2/6
f 649/4/6 650/4/6 653/4/6
f 652/2/6 649/2/6 653/2/6
f 650/2/6 651/2/6 654/2/6
f 653/4/6 650/4/6 654/4/6
f 653/2/6 654/2/6 655/2/6
f 654/2/6 651/2/6 656/2/6
f 655/2/6 654/2/6 656/2/6
