# MagicaVoxel @ Ephtracy

# group
o 

# material
mtllib TITLE2-0.mtl
usemtl palette

# normals
vn -1 0 0
vn 1 0 0
vn 0 0 1
vn 0 0 -1
vn 0 -1 0
vn 0 1 0

# texcoords
vt 0.0253906 0.5
vt 0.466797 0.5
vt 0.966797 0.5

# verts
v -12.8 10.7 -0.7
v -12.8 10.7 -1
v -12.8 10.7 -1.1
v -12.8 10.8 -0.7
v -12.8 10.8 -1
v -12.8 16.4 -0.7
v -12.8 16.4 -1
v -12.8 16.5 -0.7
v -12.8 16.5 -1
v -12.8 16.7 -0.7
v -12.8 16.7 -1
v -12.8 16.8 -0.7
v -12.8 16.8 -1
v -12.8 17 -0.7
v -12.8 17 -1
v -12.8 17.1 -0.7
v -12.8 17.1 -1
v -12.8 17.4 -0.7
v -12.8 17.4 -1
v -12.8 17.5 -0.7
v -12.8 17.5 -1
v -12.8 17.7 -0.7
v -12.8 17.7 -1
v -12.8 17.9 -0.7
v -12.8 17.9 -1
v -12.8 18.2 -0.6
v -12.8 18.2 -1
v -12.8 18.5 -0.6
v -12.8 18.5 -1
v -12.8 18.8 -0.7
v -12.8 18.8 -1
v -12.8 19.2 -0.7
v -12.8 19.2 -1
v -12.8 19.2 -1.1
v -9.3 10.9 -0.7
v -9.3 10.9 -1
v -9.3 11 -0.7
v -9.3 11 -1
v -6.4 11 -0.7
v -6.4 11 -1
v -6.4 11.1 -0.7
v -6.4 11.1 -1
v -2.9 11.4 -0.6
v -2.9 11.4 -1
v -2.9 11.7 -0.6
v -2.9 11.7 -1
v -0.5 12 -0.7
v -0.5 12 -1
v -0.5 12.2 -0.7
v -0.5 12.2 -1
v 1.1 12.4 -0.7
v 1.1 12.4 -1
v 1.1 12.5 -0.7
v 1.1 12.5 -1
v 3 13.1 -0.7
v 3 13.1 -1
v 3 13.2 -0.7
v 3 13.2 -1
v 3.2 12.8 -0.7
v 3.2 12.8 -1
v 3.2 12.9 -0.7
v 3.2 12.9 -1
v 4.2 13.4 -0.7
v 4.2 13.4 -1
v 4.2 13.5 -0.7
v 4.2 13.5 -1
v 11.6 10.8 -0.7
v 11.6 10.8 -1
v 11.6 10.9 -0.7
v 11.6 10.9 -1
v -11.6 19 -0.7
v -11.6 19 -1
v -11.6 19.1 -0.7
v -11.6 19.1 -1
v -4.2 16.4 -0.7
v -4.2 16.4 -1
v -4.2 16.5 -0.7
v -4.2 16.5 -1
v -3.2 17 -0.7
v -3.2 17 -1
v -3.2 17.1 -0.7
v -3.2 17.1 -1
v -3 16.7 -0.7
v -3 16.7 -1
v -3 16.8 -0.7
v -3 16.8 -1
v -1.1 17.4 -0.7
v -1.1 17.4 -1
v -1.1 17.5 -0.7
v -1.1 17.5 -1
v 0.5 17.7 -0.7
v 0.5 17.7 -1
v 0.5 17.9 -0.7
v 0.5 17.9 -1
v 2.9 18.2 -0.6
v 2.9 18.2 -1
v 2.9 18.5 -0.6
v 2.9 18.5 -1
v 6.4 18.8 -0.7
v 6.4 18.8 -1
v 6.4 18.9 -0.7
v 6.4 18.9 -1
v 9.3 18.9 -0.7
v 9.3 18.9 -1
v 9.3 19 -0.7
v 9.3 19 -1
v 12.8 10.7 -0.7
v 12.8 10.7 -1
v 12.8 10.7 -1.1
v 12.8 11.1 -0.7
v 12.8 11.1 -1
v 12.8 11.4 -0.6
v 12.8 11.4 -1
v 12.8 11.7 -0.6
v 12.8 11.7 -1
v 12.8 12 -0.7
v 12.8 12 -1
v 12.8 12.2 -0.7
v 12.8 12.2 -1
v 12.8 12.4 -0.7
v 12.8 12.4 -1
v 12.8 12.5 -0.7
v 12.8 12.5 -1
v 12.8 12.8 -0.7
v 12.8 12.8 -1
v 12.8 12.9 -0.7
v 12.8 12.9 -1
v 12.8 13.1 -0.7
v 12.8 13.1 -1
v 12.8 13.2 -0.7
v 12.8 13.2 -1
v 12.8 13.4 -0.7
v 12.8 13.4 -1
v 12.8 13.5 -0.7
v 12.8 13.5 -1
v 12.8 19.1 -0.7
v 12.8 19.1 -1
v 12.8 19.2 -0.7
v 12.8 19.2 -1
v 12.8 19.2 -1.1
v -12.8 18.2 -0.6
v -12.8 18.5 -0.6
v -2.9 11.4 -0.6
v -2.9 11.7 -0.6
v 2.9 18.2 -0.6
v 2.9 18.5 -0.6
v 12.8 11.4 -0.6
v 12.8 11.7 -0.6
v -12.8 10.7 -0.7
v -12.8 10.8 -0.7
v -12.8 16.4 -0.7
v -12.8 16.5 -0.7
v -12.8 16.7 -0.7
v -12.8 16.8 -0.7
v -12.8 17 -0.7
v -12.8 17.1 -0.7
v -12.8 17.4 -0.7
v -12.8 17.5 -0.7
v -12.8 17.7 -0.7
v -12.8 17.9 -0.7
v -12.8 18.8 -0.7
v -12.8 19.2 -0.7
v -11.6 19 -0.7
v -11.6 19.1 -0.7
v -9.3 10.9 -0.7
v -9.3 11 -0.7
v -6.4 11 -0.7
v -6.4 11.1 -0.7
v -4.2 16.4 -0.7
v -4.2 16.5 -0.7
v -3.2 17 -0.7
v -3.2 17.1 -0.7
v -3 16.7 -0.7
v -3 16.8 -0.7
v -1.1 17.4 -0.7
v -1.1 17.5 -0.7
v -0.5 12 -0.7
v -0.5 12.2 -0.7
v 0.5 17.7 -0.7
v 0.5 17.9 -0.7
v 1.1 12.4 -0.7
v 1.1 12.5 -0.7
v 3 13.1 -0.7
v 3 13.2 -0.7
v 3.2 12.8 -0.7
v 3.2 12.9 -0.7
v 4.2 13.4 -0.7
v 4.2 13.5 -0.7
v 6.4 18.8 -0.7
v 6.4 18.9 -0.7
v 9.3 18.9 -0.7
v 9.3 19 -0.7
v 11.6 10.8 -0.7
v 11.6 10.9 -0.7
v 12.8 10.7 -0.7
v 12.8 11.1 -0.7
v 12.8 12 -0.7
v 12.8 12.2 -0.7
v 12.8 12.4 -0.7
v 12.8 12.5 -0.7
v 12.8 12.8 -0.7
v 12.8 12.9 -0.7
v 12.8 13.1 -0.7
v 12.8 13.2 -0.7
v 12.8 13.4 -0.7
v 12.8 13.5 -0.7
v 12.8 19.1 -0.7
v 12.8 19.2 -0.7
v -12.8 10.8 -1
v -12.8 16.4 -1
v -12.8 16.5 -1
v -12.8 16.7 -1
v -12.8 16.8 -1
v -12.8 17 -1
v -12.8 17.1 -1
v -12.8 17.4 -1
v -12.8 17.5 -1
v -12.8 17.7 -1
v -12.8 17.9 -1
v -12.8 18.2 -1
v -12.8 18.5 -1
v -12.8 18.8 -1
v -11.6 19 -1
v -11.6 19.1 -1
v -9.3 10.9 -1
v -9.3 11 -1
v -6.4 11 -1
v -6.4 11.1 -1
v -4.2 16.4 -1
v -4.2 16.5 -1
v -3.2 17 -1
v -3.2 17.1 -1
v -3 16.7 -1
v -3 16.8 -1
v -2.9 11.4 -1
v -2.9 11.7 -1
v -1.1 17.4 -1
v -1.1 17.5 -1
v -0.5 12 -1
v -0.5 12.2 -1
v 0.5 17.7 -1
v 0.5 17.9 -1
v 1.1 12.4 -1
v 1.1 12.5 -1
v 2.9 18.2 -1
v 2.9 18.5 -1
v 3 13.1 -1
v 3 13.2 -1
v 3.2 12.8 -1
v 3.2 12.9 -1
v 4.2 13.4 -1
v 4.2 13.5 -1
v 6.4 18.8 -1
v 6.4 18.9 -1
v 9.3 18.9 -1
v 9.3 19 -1
v 11.6 10.8 -1
v 11.6 10.9 -1
v 12.8 11.1 -1
v 12.8 11.4 -1
v 12.8 11.7 -1
v 12.8 12 -1
v 12.8 12.2 -1
v 12.8 12.4 -1
v 12.8 12.5 -1
v 12.8 12.8 -1
v 12.8 12.9 -1
v 12.8 13.1 -1
v 12.8 13.2 -1
v 12.8 13.4 -1
v 12.8 13.5 -1
v 12.8 19.1 -1
v -12.8 10.7 -1.1
v -12.8 19.2 -1.1
v 12.8 10.7 -1.1
v 12.8 19.2 -1.1
v -12.8 10.7 -0.7
v 12.8 10.7 -0.7
v -12.8 10.7 -1
v 12.8 10.7 -1
v -12.8 10.7 -1.1
v 12.8 10.7 -1.1
v -9.3 10.9 -0.7
v 11.6 10.9 -0.7
v -9.3 10.9 -1
v 11.6 10.9 -1
v -2.9 11.4 -0.6
v 12.8 11.4 -0.6
v -2.9 11.4 -1
v 12.8 11.4 -1
v -0.5 12 -0.7
v 12.8 12 -0.7
v -0.5 12 -1
v 12.8 12 -1
v 1.1 12.4 -0.7
v 12.8 12.4 -0.7
v 1.1 12.4 -1
v 12.8 12.4 -1
v 3.2 12.8 -0.7
v 12.8 12.8 -0.7
v 3.2 12.8 -1
v 12.8 12.8 -1
v 3 13.1 -0.7
v 12.8 13.1 -0.7
v 3 13.1 -1
v 12.8 13.1 -1
v 4.2 13.4 -0.7
v 12.8 13.4 -0.7
v 4.2 13.4 -1
v 12.8 13.4 -1
v -12.8 16.4 -0.7
v -4.2 16.4 -0.7
v -12.8 16.4 -1
v -4.2 16.4 -1
v -12.8 16.7 -0.7
v -3 16.7 -0.7
v -12.8 16.7 -1
v -3 16.7 -1
v -12.8 17 -0.7
v -3.2 17 -0.7
v -12.8 17 -1
v -3.2 17 -1
v -12.8 17.4 -0.7
v -1.1 17.4 -0.7
v -12.8 17.4 -1
v -1.1 17.4 -1
v -12.8 17.7 -0.7
v 0.5 17.7 -0.7
v -12.8 17.7 -1
v 0.5 17.7 -1
v -12.8 18.2 -0.6
v 2.9 18.2 -0.6
v -12.8 18.2 -1
v 2.9 18.2 -1
v -12.8 18.8 -0.7
v 6.4 18.8 -0.7
v -12.8 18.8 -1
v 6.4 18.8 -1
v 6.4 18.9 -0.7
v 9.3 18.9 -0.7
v 6.4 18.9 -1
v 9.3 18.9 -1
v -11.6 19.1 -0.7
v 12.8 19.1 -0.7
v -11.6 19.1 -1
v 12.8 19.1 -1
v -12.8 10.8 -0.7
v 11.6 10.8 -0.7
v -12.8 10.8 -1
v 11.6 10.8 -1
v -9.3 11 -0.7
v -6.4 11 -0.7
v -9.3 11 -1
v -6.4 11 -1
v -6.4 11.1 -0.7
v 12.8 11.1 -0.7
v -6.4 11.1 -1
v 12.8 11.1 -1
v -2.9 11.7 -0.6
v 12.8 11.7 -0.6
v -2.9 11.7 -1
v 12.8 11.7 -1
v -0.5 12.2 -0.7
v 12.8 12.2 -0.7
v -0.5 12.2 -1
v 12.8 12.2 -1
v 1.1 12.5 -0.7
v 12.8 12.5 -0.7
v 1.1 12.5 -1
v 12.8 12.5 -1
v 3.2 12.9 -0.7
v 12.8 12.9 -0.7
v 3.2 12.9 -1
v 12.8 12.9 -1
v 3 13.2 -0.7
v 12.8 13.2 -0.7
v 3 13.2 -1
v 12.8 13.2 -1
v 4.2 13.5 -0.7
v 12.8 13.5 -0.7
v 4.2 13.5 -1
v 12.8 13.5 -1
v -12.8 16.5 -0.7
v -4.2 16.5 -0.7
v -12.8 16.5 -1
v -4.2 16.5 -1
v -12.8 16.8 -0.7
v -3 16.8 -0.7
v -12.8 16.8 -1
v -3 16.8 -1
v -12.8 17.1 -0.7
v -3.2 17.1 -0.7
v -12.8 17.1 -1
v -3.2 17.1 -1
v -12.8 17.5 -0.7
v -1.1 17.5 -0.7
v -12.8 17.5 -1
v -1.1 17.5 -1
v -12.8 17.9 -0.7
v 0.5 17.9 -0.7
v -12.8 17.9 -1
v 0.5 17.9 -1
v -12.8 18.5 -0.6
v 2.9 18.5 -0.6
v -12.8 18.5 -1
v 2.9 18.5 -1
v -11.6 19 -0.7
v 9.3 19 -0.7
v -11.6 19 -1
v 9.3 19 -1
v -12.8 19.2 -0.7
v 12.8 19.2 -0.7
v -12.8 19.2 -1
v 12.8 19.2 -1
v -12.8 19.2 -1.1
v 12.8 19.2 -1.1

# faces
f 4/2/1 2/2/1 1/2/1
f 5/1/1 3/1/1 2/1/1
f 5/2/1 2/2/1 4/2/1
f 7/1/1 3/1/1 5/1/1
f 8/2/1 7/2/1 6/2/1
f 9/1/1 3/1/1 7/1/1
f 9/2/1 7/2/1 8/2/1
f 11/1/1 3/1/1 9/1/1
f 12/2/1 11/2/1 10/2/1
f 13/1/1 3/1/1 11/1/1
f 13/2/1 11/2/1 12/2/1
f 15/1/1 3/1/1 13/1/1
f 16/2/1 15/2/1 14/2/1
f 17/1/1 3/1/1 15/1/1
f 17/2/1 15/2/1 16/2/1
f 19/1/1 3/1/1 17/1/1
f 20/2/1 19/2/1 18/2/1
f 21/1/1 3/1/1 19/1/1
f 21/2/1 19/2/1 20/2/1
f 23/1/1 3/1/1 21/1/1
f 24/2/1 23/2/1 22/2/1
f 25/1/1 3/1/1 23/1/1
f 25/2/1 23/2/1 24/2/1
f 27/1/1 3/1/1 25/1/1
f 28/2/1 27/2/1 26/2/1
f 29/1/1 3/1/1 27/1/1
f 29/2/1 27/2/1 28/2/1
f 31/1/1 3/1/1 29/1/1
f 32/2/1 31/2/1 30/2/1
f 33/1/1 3/1/1 31/1/1
f 33/2/1 31/2/1 32/2/1
f 34/1/1 3/1/1 33/1/1
f 37/2/1 36/2/1 35/2/1
f 38/2/1 36/2/1 37/2/1
f 41/2/1 40/2/1 39/2/1
f 42/2/1 40/2/1 41/2/1
f 45/2/1 44/2/1 43/2/1
f 46/2/1 44/2/1 45/2/1
f 49/2/1 48/2/1 47/2/1
f 50/2/1 48/2/1 49/2/1
f 53/2/1 52/2/1 51/2/1
f 54/2/1 52/2/1 53/2/1
f 57/2/1 56/2/1 55/2/1
f 58/2/1 56/2/1 57/2/1
f 61/2/1 60/2/1 59/2/1
f 62/2/1 60/2/1 61/2/1
f 65/2/1 64/2/1 63/2/1
f 66/2/1 64/2/1 65/2/1
f 69/2/1 68/2/1 67/2/1
f 70/2/1 68/2/1 69/2/1
f 71/2/2 72/2/2 73/2/2
f 73/2/2 72/2/2 74/2/2
f 75/2/2 76/2/2 77/2/2
f 77/2/2 76/2/2 78/2/2
f 79/2/2 80/2/2 81/2/2
f 81/2/2 80/2/2 82/2/2
f 83/2/2 84/2/2 85/2/2
f 85/2/2 84/2/2 86/2/2
f 87/2/2 88/2/2 89/2/2
f 89/2/2 88/2/2 90/2/2
f 91/2/2 92/2/2 93/2/2
f 93/2/2 92/2/2 94/2/2
f 95/2/2 96/2/2 97/2/2
f 97/2/2 96/2/2 98/2/2
f 99/2/2 100/2/2 101/2/2
f 101/2/2 100/2/2 102/2/2
f 103/2/2 104/2/2 105/2/2
f 105/2/2 104/2/2 106/2/2
f 107/2/2 108/2/2 110/2/2
f 108/1/2 109/1/2 111/1/2
f 110/2/2 108/2/2 111/2/2
f 111/1/2 109/1/2 113/1/2
f 112/2/2 113/2/2 114/2/2
f 113/1/2 109/1/2 115/1/2
f 114/2/2 113/2/2 115/2/2
f 115/1/2 109/1/2 117/1/2
f 116/2/2 117/2/2 118/2/2
f 117/1/2 109/1/2 119/1/2
f 118/2/2 117/2/2 119/2/2
f 119/1/2 109/1/2 121/1/2
f 120/2/2 121/2/2 122/2/2
f 121/1/2 109/1/2 123/1/2
f 122/2/2 121/2/2 123/2/2
f 123/1/2 109/1/2 125/1/2
f 124/2/2 125/2/2 126/2/2
f 125/1/2 109/1/2 127/1/2
f 126/2/2 125/2/2 127/2/2
f 127/1/2 109/1/2 129/1/2
f 128/2/2 129/2/2 130/2/2
f 129/1/2 109/1/2 131/1/2
f 130/2/2 129/2/2 131/2/2
f 131/1/2 109/1/2 133/1/2
f 132/2/2 133/2/2 134/2/2
f 133/1/2 109/1/2 135/1/2
f 134/2/2 133/2/2 135/2/2
f 135/1/2 109/1/2 137/1/2
f 136/2/2 137/2/2 138/2/2
f 137/1/2 109/1/2 139/1/2
f 138/2/2 137/2/2 139/2/2
f 139/1/2 109/1/2 140/1/2
f 145/2/3 142/2/3 141/2/3
f 146/2/3 142/2/3 145/2/3
f 147/2/3 144/2/3 143/2/3
f 148/2/3 144/2/3 147/2/3
f 163/2/3 162/2/3 161/2/3
f 164/2/3 162/2/3 163/2/3
f 167/2/3 166/2/3 165/2/3
f 169/2/3 152/2/3 151/2/3
f 170/2/3 152/2/3 169/2/3
f 171/2/3 156/2/3 155/2/3
f 172/2/3 156/2/3 171/2/3
f 173/2/3 154/2/3 153/2/3
f 174/2/3 154/2/3 173/2/3
f 175/2/3 158/2/3 157/2/3
f 176/2/3 158/2/3 175/2/3
f 179/2/3 160/2/3 159/2/3
f 180/2/3 160/2/3 179/2/3
f 189/2/3 163/2/3 161/2/3
f 190/2/3 163/2/3 189/2/3
f 191/2/3 163/2/3 190/2/3
f 192/2/3 163/2/3 191/2/3
f 193/2/3 150/2/3 149/2/3
f 194/2/3 168/2/3 167/2/3
f 194/2/3 167/2/3 165/2/3
f 195/2/3 193/2/3 149/2/3
f 195/2/3 194/2/3 193/2/3
f 196/2/3 168/2/3 194/2/3
f 196/2/3 194/2/3 195/2/3
f 197/2/3 178/2/3 177/2/3
f 198/2/3 178/2/3 197/2/3
f 199/2/3 182/2/3 181/2/3
f 200/2/3 182/2/3 199/2/3
f 201/2/3 186/2/3 185/2/3
f 202/2/3 186/2/3 201/2/3
f 203/2/3 184/2/3 183/2/3
f 204/2/3 184/2/3 203/2/3
f 205/2/3 188/2/3 187/2/3
f 206/2/3 188/2/3 205/2/3
f 207/2/3 162/2/3 164/2/3
f 208/2/3 162/2/3 207/2/3
f 225/1/3 210/1/3 209/1/3
f 226/1/3 210/1/3 225/1/3
f 227/1/3 210/1/3 226/1/3
f 228/1/3 210/1/3 227/1/3
f 229/1/3 210/1/3 228/1/3
f 230/1/3 212/1/3 211/1/3
f 231/1/3 214/1/3 213/1/3
f 232/1/3 216/1/3 215/1/3
f 233/1/3 230/1/3 229/1/3
f 233/1/3 212/1/3 230/1/3
f 234/1/3 232/1/3 231/1/3
f 234/1/3 231/1/3 213/1/3
f 235/1/3 229/1/3 228/1/3
f 235/1/3 234/1/3 233/1/3
f 235/1/3 233/1/3 229/1/3
f 236/1/3 234/1/3 235/1/3
f 237/1/3 232/1/3 234/1/3
f 237/1/3 234/1/3 236/1/3
f 237/1/3 216/1/3 232/1/3
f 238/1/3 218/1/3 217/1/3
f 239/1/3 237/1/3 236/1/3
f 239/1/3 238/1/3 237/1/3
f 240/1/3 238/1/3 239/1/3
f 241/1/3 218/1/3 238/1/3
f 241/1/3 238/1/3 240/1/3
f 242/1/3 220/1/3 219/1/3
f 243/1/3 241/1/3 240/1/3
f 243/1/3 242/1/3 241/1/3
f 244/1/3 242/1/3 243/1/3
f 245/1/3 220/1/3 242/1/3
f 245/1/3 242/1/3 244/1/3
f 246/1/3 222/1/3 221/1/3
f 247/1/3 245/1/3 244/1/3
f 247/1/3 246/1/3 245/1/3
f 248/1/3 246/1/3 247/1/3
f 249/1/3 247/1/3 244/1/3
f 250/1/3 247/1/3 249/1/3
f 251/1/3 246/1/3 248/1/3
f 252/1/3 246/1/3 251/1/3
f 253/1/3 222/1/3 246/1/3
f 253/1/3 246/1/3 252/1/3
f 255/1/3 254/1/3 253/1/3
f 256/1/3 224/1/3 223/1/3
f 257/1/3 225/1/3 209/1/3
f 258/1/3 225/1/3 257/1/3
f 259/1/3 235/1/3 228/1/3
f 260/1/3 235/1/3 259/1/3
f 261/1/3 239/1/3 236/1/3
f 262/1/3 239/1/3 261/1/3
f 263/1/3 243/1/3 240/1/3
f 264/1/3 243/1/3 263/1/3
f 265/1/3 249/1/3 244/1/3
f 266/1/3 249/1/3 265/1/3
f 267/1/3 247/1/3 250/1/3
f 268/1/3 247/1/3 267/1/3
f 269/1/3 251/1/3 248/1/3
f 270/1/3 251/1/3 269/1/3
f 271/1/3 255/1/3 253/1/3
f 271/1/3 256/1/3 255/1/3
f 271/1/3 253/1/3 252/1/3
f 272/1/3 224/1/3 256/1/3
f 272/1/3 256/1/3 271/1/3
f 273/1/4 274/1/4 275/1/4
f 275/1/4 274/1/4 276/1/4
f 279/2/5 278/2/5 277/2/5
f 280/2/5 278/2/5 279/2/5
f 281/1/5 280/1/5 279/1/5
f 282/1/5 280/1/5 281/1/5
f 285/2/5 284/2/5 283/2/5
f 286/2/5 284/2/5 285/2/5
f 289/2/5 288/2/5 287/2/5
f 290/2/5 288/2/5 289/2/5
f 293/2/5 292/2/5 291/2/5
f 294/2/5 292/2/5 293/2/5
f 297/2/5 296/2/5 295/2/5
f 298/2/5 296/2/5 297/2/5
f 301/2/5 300/2/5 299/2/5
f 302/2/5 300/2/5 301/2/5
f 305/2/5 304/2/5 303/2/5
f 306/2/5 304/2/5 305/2/5
f 309/2/5 308/2/5 307/2/5
f 310/2/5 308/2/5 309/2/5
f 313/2/5 312/2/5 311/2/5
f 314/2/5 312/2/5 313/2/5
f 317/2/5 316/2/5 315/2/5
f 318/2/5 316/2/5 317/2/5
f 321/2/5 320/2/5 319/2/5
f 322/2/5 320/2/5 321/2/5
f 325/2/5 324/2/5 323/2/5
f 326/2/5 324/2/5 325/2/5
f 329/2/5 328/2/5 327/2/5
f 330/2/5 328/2/5 329/2/5
f 333/2/5 332/2/5 331/2/5
f 334/2/5 332/2/5 333/2/5
f 337/2/5 336/2/5 335/2/5
f 338/2/5 336/2/5 337/2/5
f 341/2/5 340/2/5 339/2/5
f 342/2/5 340/2/5 341/2/5
f 345/2/5 344/2/5 343/2/5
f 346/2/5 344/2/5 345/2/5
f 347/2/6 348/2/6 349/2/6
f 349/2/6 348/2/6 350/2/6
f 351/2/6 352/2/6 353/2/6
f 353/2/6 352/2/6 354/2/6
f 355/2/6 356/2/6 357/2/6
f 357/2/6 356/2/6 358/2/6
f 359/2/6 360/2/6 361/2/6
f 361/2/6 360/2/6 362/2/6
f 363/2/6 364/2/6 365/2/6
f 365/2/6 364/2/6 366/2/6
f 367/2/6 368/2/6 369/2/6
f 369/2/6 368/2/6 370/2/6
f 371/2/6 372/2/6 373/2/6
f 373/2/6 372/2/6 374/2/6
f 375/2/6 376/2/6 377/2/6
f 377/2/6 376/2/6 378/2/6
f 379/2/6 380/2/6 381/2/6
f 381/2/6 380/2/6 382/2/6
f 383/2/6 384/2/6 385/2/6
f 385/2/6 384/2/6 386/2/6
f 387/2/6 388/2/6 389/2/6
f 389/2/6 388/2/6 390/2/6
f 391/2/6 392/2/6 393/2/6
f 393/2/6 392/2/6 394/2/6
f 395/2/6 396/2/6 397/2/6
f 397/2/6 396/2/6 398/2/6
f 399/2/6 400/2/6 401/2/6
f 401/2/6 400/2/6 402/2/6
f 403/2/6 404/2/6 405/2/6
f 405/2/6 404/2/6 406/2/6
f 407/2/6 408/2/6 409/2/6
f 409/2/6 408/2/6 410/2/6
f 411/2/6 412/2/6 413/2/6
f 413/2/6 412/2/6 414/2/6
f 413/1/6 414/1/6 415/1/6
f 415/1/6 414/1/6 416/1/6
