# MagicaVoxel @ Ephtracy

# group
o 

# material
mtllib flog2-3.mtl
usemtl palette

# normals
vn -1 0 0
vn 1 0 0
vn 0 0 1
vn 0 0 -1
vn 0 -1 0
vn 0 1 0

# texcoords
vt 0.720703 0.5
vt 0.958984 0.5

# verts
v -4.5 1 3.7
v -4.5 1 -3.7
v -4.5 1.3 4
v -4.5 1.3 3.7
v -4.5 1.3 -3.7
v -4.5 1.3 -4
v -4.5 1.4 4
v -4.5 1.4 -4
v -4.5 2.8 4
v -4.5 2.8 3.8
v -4.5 2.8 -3.8
v -4.5 2.8 -4
v -4.5 3 3.8
v -4.5 3 3
v -4.5 3 -3
v -4.5 3 -3.8
v -4.5 4 3
v -4.5 4 2
v -4.5 4 -2
v -4.5 4 -3
v -4.5 5 2
v -4.5 5 -2
v -3.5 -2 2.8
v -3.5 -2 -2.8
v -3.5 -1.9 2.9
v -3.5 -1.9 2.8
v -3.5 -1.9 -2.8
v -3.5 -1.9 -2.9
v -3.5 -1.8 3
v -3.5 -1.8 2.9
v -3.5 -1.8 -2.9
v -3.5 -1.8 -3
v -3.5 -1 4
v -3.5 -1 3.8
v -3.5 -1 3
v -3.5 -1 -3
v -3.5 -1 -3.8
v -3.5 -1 -4
v -3.5 1 3.7
v -3.5 1 -3.7
v -3.5 1.3 4
v -3.5 1.3 3.8
v -3.5 1.3 3.7
v -3.5 1.3 -3.7
v -3.5 1.3 -3.8
v -3.5 1.3 -4
v -1.5 4 2
v -1.5 4 -2
v -1.5 5 2
v -1.5 5 -2
v 1.5 3 3
v 1.5 3 -3
v 1.5 4 3
v 1.5 4 -3
v 4.4 1.9 4
v 4.4 1.9 3.8
v 4.4 1.9 -3.8
v 4.4 1.9 -4
v 4.4 2.8 4
v 4.4 2.8 3.8
v 4.4 2.8 -3.8
v 4.4 2.8 -4
v 4.5 2 3.8
v 4.5 2 -3.8
v 4.5 3 3.8
v 4.5 3 -3.8
v 5.4 0.9 4
v 5.4 0.9 3.8
v 5.4 0.9 -3.8
v 5.4 0.9 -4
v 5.4 1.9 4
v 5.4 1.9 3.8
v 5.4 1.9 -3.8
v 5.4 1.9 -4
v 5.5 1 3.8
v 5.5 1 -3.8
v 5.5 2 3.8
v 5.5 2 -3.8
v 6.3 -2 2.8
v 6.3 -2 -2.8
v 6.3 -1.9 2.9
v 6.3 -1.9 2.8
v 6.3 -1.9 -2.8
v 6.3 -1.9 -2.9
v 6.3 -1.8 3
v 6.3 -1.8 2.9
v 6.3 -1.8 -2.9
v 6.3 -1.8 -3
v 6.3 -1 3
v 6.3 -1 2.8
v 6.3 -1 -2.8
v 6.3 -1 -3
v 6.4 -1 4
v 6.4 -1 3.8
v 6.4 -1 -3.8
v 6.4 -1 -4
v 6.4 -0.9 4
v 6.4 -0.9 3.8
v 6.4 -0.9 -3.8
v 6.4 -0.9 -4
v 6.4 0.5 4
v 6.4 0.5 3.8
v 6.4 0.5 -3.8
v 6.4 0.5 -4
v 6.4 0.9 4
v 6.4 0.9 3.8
v 6.4 0.9 -3.8
v 6.4 0.9 -4
v 6.5 -1.9 2.8
v 6.5 -1.9 -2.8
v 6.5 -1 2.8
v 6.5 -1 -2.8
v 6.5 0.6 3.8
v 6.5 0.6 -3.8
v 6.5 1 3.8
v 6.5 1 -3.8
v 6.9 -1 3.8
v 6.9 -1 3.4
v 6.9 -1 -3.4
v 6.9 -1 -3.8
v 6.9 -0.9 4
v 6.9 -0.9 3.8
v 6.9 -0.9 3.4
v 6.9 -0.9 -3.4
v 6.9 -0.9 -3.8
v 6.9 -0.9 -4
v 6.9 0.5 4
v 6.9 0.5 3.8
v 6.9 0.5 -3.8
v 6.9 0.5 -4
v 6.9 0.6 3.8
v 6.9 0.6 -3.8
v 7 -0.9 3.8
v 7 -0.9 3.4
v 7 -0.9 -3.4
v 7 -0.9 -3.8
v 7 -0.8 3.4
v 7 -0.8 -3.4
v 7 0.5 3.8
v 7 0.5 -3.8
v -4.5 1.3 4
v -4.5 1.4 4
v -4.5 2.8 4
v -4.1 1.3 4
v -4.1 1.4 4
v -3.5 -1 4
v -3.5 1.3 4
v 4.4 1.9 4
v 4.4 2.8 4
v 5.4 0.9 4
v 5.4 1.9 4
v 6.4 -1 4
v 6.4 -0.9 4
v 6.4 0.5 4
v 6.4 0.9 4
v 6.9 -0.9 4
v 6.9 0.5 4
v -4.5 2.8 3.8
v -4.5 3 3.8
v 4.4 1.9 3.8
v 4.4 2.8 3.8
v 4.5 2 3.8
v 4.5 3 3.8
v 5.4 0.9 3.8
v 5.4 1.9 3.8
v 5.5 1 3.8
v 5.5 2 3.8
v 6.4 -1 3.8
v 6.4 -0.9 3.8
v 6.4 0.5 3.8
v 6.4 0.9 3.8
v 6.5 0.6 3.8
v 6.5 1 3.8
v 6.9 -1 3.8
v 6.9 -0.9 3.8
v 6.9 0.5 3.8
v 6.9 0.6 3.8
v 7 -0.9 3.8
v 7 0.5 3.8
v -4.5 1 3.7
v -4.5 1.3 3.7
v -3.5 1 3.7
v -3.5 1.3 3.7
v -4.5 3 3
v -4.5 4 3
v -3.5 -1.8 3
v -3.5 -1 3
v -3.4 -1 3
v -3.2 -1.7 3
v -3.2 -1 3
v -3.1 -1.8 3
v -3.1 -1.7 3
v 1.5 3 3
v 1.5 4 3
v 5 -1.8 3
v 5 -1.7 3
v 5.3 -1.7 3
v 5.3 -1.4 3
v 5.4 -1 3
v 5.5 -1.4 3
v 5.5 -1 3
v 6.3 -1.8 3
v 6.3 -1 3
v -3.5 -1.9 2.9
v -3.5 -1.8 2.9
v -3.1 -1.8 2.9
v -2.9 -1.9 2.9
v -2.9 -1.8 2.9
v 4.1 -1.9 2.9
v 4.1 -1.8 2.9
v 5 -1.8 2.9
v 6.3 -1.9 2.9
v 6.3 -1.8 2.9
v -3.5 -2 2.8
v -3.5 -1.9 2.8
v -2.9 -1.9 2.8
v -1.5 -2 2.8
v -1.5 -1.9 2.8
v 3 -2 2.8
v 3 -1.9 2.8
v 4.1 -1.9 2.8
v 6.3 -2 2.8
v 6.3 -1.9 2.8
v 6.3 -1 2.8
v 6.5 -1.9 2.8
v 6.5 -1 2.8
v -4.5 4 2
v -4.5 5 2
v -1.5 4 2
v -1.5 5 2
v -4.5 4 -2
v -4.5 5 -2
v -1.5 4 -2
v -1.5 5 -2
v -3.5 -2 -2.8
v -3.5 -1.9 -2.8
v -2.9 -1.9 -2.8
v -1.5 -2 -2.8
v -1.5 -1.9 -2.8
v 3 -2 -2.8
v 3 -1.9 -2.8
v 4.1 -1.9 -2.8
v 6.3 -2 -2.8
v 6.3 -1.9 -2.8
v 6.3 -1 -2.8
v 6.5 -1.9 -2.8
v 6.5 -1 -2.8
v -3.5 -1.9 -2.9
v -3.5 -1.8 -2.9
v -3.1 -1.8 -2.9
v -2.9 -1.9 -2.9
v -2.9 -1.8 -2.9
v 4.1 -1.9 -2.9
v 4.1 -1.8 -2.9
v 5 -1.8 -2.9
v 6.3 -1.9 -2.9
v 6.3 -1.8 -2.9
v -4.5 3 -3
v -4.5 4 -3
v -3.5 -1.8 -3
v -3.5 -1 -3
v -3.4 -1 -3
v -3.2 -1.7 -3
v -3.2 -1 -3
v -3.1 -1.8 -3
v -3.1 -1.7 -3
v 1.5 3 -3
v 1.5 4 -3
v 5 -1.8 -3
v 5 -1.7 -3
v 5.3 -1.7 -3
v 5.3 -1.4 -3
v 5.4 -1 -3
v 5.5 -1.4 -3
v 5.5 -1 -3
v 6.3 -1.8 -3
v 6.3 -1 -3
v -4.5 1 -3.7
v -4.5 1.3 -3.7
v -3.5 1 -3.7
v -3.5 1.3 -3.7
v -4.5 2.8 -3.8
v -4.5 3 -3.8
v 4.4 1.9 -3.8
v 4.4 2.8 -3.8
v 4.5 2 -3.8
v 4.5 3 -3.8
v 5.4 0.9 -3.8
v 5.4 1.9 -3.8
v 5.5 1 -3.8
v 5.5 2 -3.8
v 6.4 -1 -3.8
v 6.4 -0.9 -3.8
v 6.4 0.5 -3.8
v 6.4 0.9 -3.8
v 6.5 0.6 -3.8
v 6.5 1 -3.8
v 6.9 -1 -3.8
v 6.9 -0.9 -3.8
v 6.9 0.5 -3.8
v 6.9 0.6 -3.8
v 7 -0.9 -3.8
v 7 0.5 -3.8
v -4.5 1.3 -4
v -4.5 1.4 -4
v -4.5 2.8 -4
v -4.1 1.3 -4
v -4.1 1.4 -4
v -3.5 -1 -4
v -3.5 1.3 -4
v 4.4 1.9 -4
v 4.4 2.8 -4
v 5.4 0.9 -4
v 5.4 1.9 -4
v 6.4 -1 -4
v 6.4 -0.9 -4
v 6.4 0.5 -4
v 6.4 0.9 -4
v 6.9 -0.9 -4
v 6.9 0.5 -4
v -3.5 -2 2.8
v -1.5 -2 2.8
v 3 -2 2.8
v 6.3 -2 2.8
v 2.7 -2 2.7
v 3 -2 2.7
v 2.3 -2 2.6
v 2.7 -2 2.6
v -1.5 -2 2.5
v -1.3 -2 2.5
v 1.9 -2 2.5
v 2.3 -2 2.5
v -1.3 -2 2.4
v -0.9 -2 2.4
v 1.7 -2 2.4
v 1.9 -2 2.4
v -0.9 -2 2.3
v -0.5 -2 2.3
v 1.4 -2 2.3
v 1.7 -2 2.3
v -0.5 -2 2.2
v -0.3 -2 2.2
v 1.1 -2 2.2
v 1.4 -2 2.2
v -0.3 -2 2.1
v -0.0999998 -2 2.1
v 0.8 -2 2.1
v 1.1 -2 2.1
v -0.0999998 -2 2
v 0.3 -2 2
v 0.4 -2 2
v 0.6 -2 2
v 0.7 -2 2
v 0.8 -2 2
v 0.3 -2 1.9
v 0.4 -2 1.9
v 0.6 -2 1.9
v 0.7 -2 1.9
v 0.3 -2 -1.9
v 0.4 -2 -1.9
v 0.6 -2 -1.9
v 0.7 -2 -1.9
v -0.0999998 -2 -2
v 0.3 -2 -2
v 0.4 -2 -2
v 0.6 -2 -2
v 0.7 -2 -2
v 0.8 -2 -2
v -0.3 -2 -2.1
v -0.0999998 -2 -2.1
v 0.8 -2 -2.1
v 1.1 -2 -2.1
v -0.5 -2 -2.2
v -0.3 -2 -2.2
v 1.1 -2 -2.2
v 1.4 -2 -2.2
v -0.9 -2 -2.3
v -0.5 -2 -2.3
v 1.4 -2 -2.3
v 1.7 -2 -2.3
v -1.3 -2 -2.4
v -0.9 -2 -2.4
v 1.7 -2 -2.4
v 1.9 -2 -2.4
v -1.5 -2 -2.5
v -1.3 -2 -2.5
v 1.9 -2 -2.5
v 2.3 -2 -2.5
v 2.3 -2 -2.6
v 2.7 -2 -2.6
v 2.7 -2 -2.7
v 3 -2 -2.7
v -3.5 -2 -2.8
v -1.5 -2 -2.8
v 3 -2 -2.8
v 6.3 -2 -2.8
v -3.5 -1.9 2.9
v -2.9 -1.9 2.9
v 4.1 -1.9 2.9
v 6.3 -1.9 2.9
v -3.5 -1.9 2.8
v -2.9 -1.9 2.8
v -1.5 -1.9 2.8
v 3 -1.9 2.8
v 4.1 -1.9 2.8
v 6.3 -1.9 2.8
v 6.5 -1.9 2.8
v -3.5 -1.9 -2.8
v -2.9 -1.9 -2.8
v -1.5 -1.9 -2.8
v 3 -1.9 -2.8
v 4.1 -1.9 -2.8
v 6.3 -1.9 -2.8
v 6.5 -1.9 -2.8
v -3.5 -1.9 -2.9
v -2.9 -1.9 -2.9
v 4.1 -1.9 -2.9
v 6.3 -1.9 -2.9
v -3.5 -1.8 3
v -3.1 -1.8 3
v 5 -1.8 3
v 6.3 -1.8 3
v -3.5 -1.8 2.9
v -3.1 -1.8 2.9
v -2.9 -1.8 2.9
v 4.1 -1.8 2.9
v 5 -1.8 2.9
v 6.3 -1.8 2.9
v -3.5 -1.8 -2.9
v -3.1 -1.8 -2.9
v -2.9 -1.8 -2.9
v 4.1 -1.8 -2.9
v 5 -1.8 -2.9
v 6.3 -1.8 -2.9
v -3.5 -1.8 -3
v -3.1 -1.8 -3
v 5 -1.8 -3
v 6.3 -1.8 -3
v -3.5 -1 4
v 6.4 -1 4
v -3.5 -1 3.8
v -3.4 -1 3.8
v 6.4 -1 3.8
v 6.9 -1 3.8
v 6.2 -1 3.4
v 6.9 -1 3.4
v 5.8 -1 3.3
v 6.2 -1 3.3
v 5.5 -1 3.2
v 5.8 -1 3.2
v 5.4 -1 3.1
v 5.5 -1 3.1
v -3.5 -1 3
v -3.4 -1 3
v -3.2 -1 3
v 5.4 -1 3
v 5.5 -1 3
v 6.3 -1 3
v 6.3 -1 2.8
v 6.5 -1 2.8
v 6.3 -1 -2.8
v 6.5 -1 -2.8
v -3.5 -1 -3
v -3.4 -1 -3
v -3.2 -1 -3
v 5.4 -1 -3
v 5.5 -1 -3
v 6.3 -1 -3
v 5.4 -1 -3.1
v 5.5 -1 -3.1
v 5.5 -1 -3.2
v 5.8 -1 -3.2
v 5.8 -1 -3.3
v 6.2 -1 -3.3
v 6.2 -1 -3.4
v 6.9 -1 -3.4
v -3.5 -1 -3.8
v -3.4 -1 -3.8
v 6.4 -1 -3.8
v 6.9 -1 -3.8
v -3.5 -1 -4
v 6.4 -1 -4
v 6.4 -0.9 4
v 6.9 -0.9 4
v 6.4 -0.9 3.8
v 6.9 -0.9 3.8
v 7 -0.9 3.8
v 6.9 -0.9 3.4
v 7 -0.9 3.4
v 6.9 -0.9 -3.4
v 7 -0.9 -3.4
v 6.4 -0.9 -3.8
v 6.9 -0.9 -3.8
v 7 -0.9 -3.8
v 6.4 -0.9 -4
v 6.9 -0.9 -4
v -4.5 1 3.7
v -3.5 1 3.7
v -4.5 1 -3.7
v -3.5 1 -3.7
v -4.5 1.3 4
v -4.1 1.3 4
v -3.5 1.3 4
v -4.4 1.3 3.9
v -4.2 1.3 3.9
v -4.1 1.3 3.9
v -3.8 1.3 3.9
v -4.4 1.3 3.8
v -4.2 1.3 3.8
v -3.8 1.3 3.8
v -3.5 1.3 3.8
v -4.5 1.3 3.7
v -3.5 1.3 3.7
v -4.5 1.3 -3.7
v -3.5 1.3 -3.7
v -4.4 1.3 -3.8
v -4.2 1.3 -3.8
v -3.8 1.3 -3.8
v -3.5 1.3 -3.8
v -4.4 1.3 -3.9
v -4.2 1.3 -3.9
v -4.1 1.3 -3.9
v -3.8 1.3 -3.9
v -4.5 1.3 -4
v -4.1 1.3 -4
v -3.5 1.3 -4
v 6.4 0.5 4
v 6.9 0.5 4
v 6.4 0.5 3.8
v 6.9 0.5 3.8
v 7 0.5 3.8
v 6.4 0.5 -3.8
v 6.9 0.5 -3.8
v 7 0.5 -3.8
v 6.4 0.5 -4
v 6.9 0.5 -4
v 6.5 0.6 3.8
v 6.9 0.6 3.8
v 6.5 0.6 -3.8
v 6.9 0.6 -3.8
v 5.4 0.9 4
v 6.4 0.9 4
v 5.4 0.9 3.8
v 6.4 0.9 3.8
v 5.4 0.9 -3.8
v 6.4 0.9 -3.8
v 5.4 0.9 -4
v 6.4 0.9 -4
v 5.5 1 3.8
v 6.5 1 3.8
v 5.5 1 -3.8
v 6.5 1 -3.8
v 4.4 1.9 4
v 5.4 1.9 4
v 4.4 1.9 3.8
v 5.4 1.9 3.8
v 4.4 1.9 -3.8
v 5.4 1.9 -3.8
v 4.4 1.9 -4
v 5.4 1.9 -4
v 4.5 2 3.8
v 5.5 2 3.8
v 4.5 2 -3.8
v 5.5 2 -3.8
v -4.5 2.8 4
v 4.4 2.8 4
v -4.5 2.8 3.8
v 4.4 2.8 3.8
v -4.5 2.8 -3.8
v 4.4 2.8 -3.8
v -4.5 2.8 -4
v 4.4 2.8 -4
v -4.5 3 3.8
v 4.5 3 3.8
v -4.5 3 3
v 1.5 3 3
v -4.5 3 -3
v 1.5 3 -3
v -4.5 3 -3.8
v 4.5 3 -3.8
v -4.5 4 3
v 1.5 4 3
v -4.5 4 2
v -1.5 4 2
v -4.5 4 -2
v -1.5 4 -2
v -4.5 4 -3
v 1.5 4 -3
v -4.5 5 2
v -1.5 5 2
v -4.5 5 -2
v -1.5 5 -2

# faces
f 4/2/1 2/2/1 1/2/1
f 5/2/1 2/2/1 4/2/1
f 7/2/1 4/2/1 3/2/1
f 7/2/1 6/2/1 5/2/1
f 7/2/1 5/2/1 4/2/1
f 8/2/1 6/2/1 7/2/1
f 9/1/1 8/1/1 7/1/1
f 10/1/1 8/1/1 9/1/1
f 11/1/1 8/1/1 10/1/1
f 12/1/1 8/1/1 11/1/1
f 13/1/1 11/1/1 10/1/1
f 14/1/1 11/1/1 13/1/1
f 15/1/1 11/1/1 14/1/1
f 16/1/1 11/1/1 15/1/1
f 17/1/1 15/1/1 14/1/1
f 18/1/1 15/1/1 17/1/1
f 19/1/1 15/1/1 18/1/1
f 20/1/1 15/1/1 19/1/1
f 21/1/1 19/1/1 18/1/1
f 22/1/1 19/1/1 21/1/1
f 26/2/1 24/2/1 23/2/1
f 27/2/1 24/2/1 26/2/1
f 30/2/1 26/2/1 25/2/1
f 30/2/1 28/2/1 27/2/1
f 30/2/1 27/2/1 26/2/1
f 31/2/1 28/2/1 30/2/1
f 35/2/1 30/2/1 29/2/1
f 35/2/1 31/2/1 30/2/1
f 35/2/1 32/2/1 31/2/1
f 36/2/1 32/2/1 35/2/1
f 39/2/1 35/2/1 34/2/1
f 39/2/1 36/2/1 35/2/1
f 39/2/1 37/2/1 36/2/1
f 40/2/1 37/2/1 39/2/1
f 41/1/1 34/1/1 33/1/1
f 42/2/1 39/2/1 34/2/1
f 42/1/1 34/1/1 41/1/1
f 43/2/1 39/2/1 42/2/1
f 44/2/1 37/2/1 40/2/1
f 45/1/1 38/1/1 37/1/1
f 45/2/1 37/2/1 44/2/1
f 46/1/1 38/1/1 45/1/1
f 47/1/2 48/1/2 49/1/2
f 49/1/2 48/1/2 50/1/2
f 51/1/2 52/1/2 53/1/2
f 53/1/2 52/1/2 54/1/2
f 55/1/2 56/1/2 59/1/2
f 59/1/2 56/1/2 60/1/2
f 57/1/2 58/1/2 61/1/2
f 61/1/2 58/1/2 62/1/2
f 63/1/2 64/1/2 65/1/2
f 65/1/2 64/1/2 66/1/2
f 67/1/2 68/1/2 71/1/2
f 71/1/2 68/1/2 72/1/2
f 69/1/2 70/1/2 73/1/2
f 73/1/2 70/1/2 74/1/2
f 75/1/2 76/1/2 77/1/2
f 77/1/2 76/1/2 78/1/2
f 79/2/2 80/2/2 82/2/2
f 82/2/2 80/2/2 83/2/2
f 81/2/2 82/2/2 86/2/2
f 83/2/2 84/2/2 87/2/2
f 85/2/2 86/2/2 89/2/2
f 86/2/2 82/2/2 90/2/2
f 89/2/2 86/2/2 90/2/2
f 87/2/2 88/2/2 91/2/2
f 83/2/2 87/2/2 91/2/2
f 91/2/2 88/2/2 92/2/2
f 93/1/2 94/1/2 97/1/2
f 97/1/2 94/1/2 98/1/2
f 95/1/2 96/1/2 99/1/2
f 99/1/2 96/1/2 100/1/2
f 101/1/2 102/1/2 105/1/2
f 105/1/2 102/1/2 106/1/2
f 103/1/2 104/1/2 107/1/2
f 107/1/2 104/1/2 108/1/2
f 109/2/2 110/2/2 111/2/2
f 111/2/2 110/2/2 112/2/2
f 113/1/2 114/1/2 115/1/2
f 115/1/2 114/1/2 116/1/2
f 117/1/2 118/1/2 122/1/2
f 118/2/2 119/2/2 123/2/2
f 122/1/2 118/1/2 123/1/2
f 119/1/2 120/1/2 124/1/2
f 123/2/2 119/2/2 124/2/2
f 124/1/2 120/1/2 125/1/2
f 121/1/2 122/1/2 127/1/2
f 127/1/2 122/1/2 128/1/2
f 125/1/2 126/1/2 129/1/2
f 129/1/2 126/1/2 130/1/2
f 128/1/2 129/1/2 131/1/2
f 131/1/2 129/1/2 132/1/2
f 133/1/2 134/1/2 137/1/2
f 134/2/2 135/2/2 137/2/2
f 135/1/2 136/1/2 138/1/2
f 137/2/2 135/2/2 138/2/2
f 133/1/2 137/1/2 139/1/2
f 137/1/2 138/1/2 139/1/2
f 138/1/2 136/1/2 140/1/2
f 139/1/2 138/1/2 140/1/2
f 144/2/3 142/2/3 141/2/3
f 145/1/3 143/1/3 142/1/3
f 145/2/3 142/2/3 144/2/3
f 147/1/3 145/1/3 144/1/3
f 148/1/3 143/1/3 145/1/3
f 148/1/3 147/1/3 146/1/3
f 148/1/3 145/1/3 147/1/3
f 149/1/3 143/1/3 148/1/3
f 150/1/3 148/1/3 146/1/3
f 151/1/3 148/1/3 150/1/3
f 152/1/3 150/1/3 146/1/3
f 153/1/3 150/1/3 152/1/3
f 154/1/3 150/1/3 153/1/3
f 155/1/3 150/1/3 154/1/3
f 156/1/3 154/1/3 153/1/3
f 157/1/3 154/1/3 156/1/3
f 161/1/3 159/1/3 158/1/3
f 162/1/3 161/1/3 160/1/3
f 163/1/3 159/1/3 161/1/3
f 163/1/3 161/1/3 162/1/3
f 165/1/3 162/1/3 160/1/3
f 166/1/3 165/1/3 164/1/3
f 167/1/3 162/1/3 165/1/3
f 167/1/3 165/1/3 166/1/3
f 171/1/3 166/1/3 164/1/3
f 172/1/3 171/1/3 170/1/3
f 173/1/3 166/1/3 171/1/3
f 173/1/3 171/1/3 172/1/3
f 174/1/3 169/1/3 168/1/3
f 175/1/3 169/1/3 174/1/3
f 176/1/3 172/1/3 170/1/3
f 177/1/3 172/1/3 176/1/3
f 178/1/3 176/1/3 175/1/3
f 179/1/3 176/1/3 178/1/3
f 182/2/3 181/2/3 180/2/3
f 183/2/3 181/2/3 182/2/3
f 188/2/3 187/2/3 186/2/3
f 189/2/3 188/2/3 186/2/3
f 190/2/3 188/2/3 189/2/3
f 191/2/3 189/2/3 186/2/3
f 192/1/3 190/1/3 189/1/3
f 192/2/3 189/2/3 191/2/3
f 193/1/3 185/1/3 184/1/3
f 194/1/3 185/1/3 193/1/3
f 195/1/3 192/1/3 191/1/3
f 196/1/3 190/1/3 192/1/3
f 196/1/3 192/1/3 195/1/3
f 197/2/3 196/2/3 195/2/3
f 197/1/3 190/1/3 196/1/3
f 198/1/3 190/1/3 197/1/3
f 199/1/3 190/1/3 198/1/3
f 200/2/3 198/2/3 197/2/3
f 200/1/3 199/1/3 198/1/3
f 201/1/3 199/1/3 200/1/3
f 202/2/3 197/2/3 195/2/3
f 202/2/3 200/2/3 197/2/3
f 202/2/3 201/2/3 200/2/3
f 203/2/3 201/2/3 202/2/3
f 206/2/3 205/2/3 204/2/3
f 207/2/3 206/2/3 204/2/3
f 208/2/3 206/2/3 207/2/3
f 209/1/3 208/1/3 207/1/3
f 210/1/3 208/1/3 209/1/3
f 211/2/3 210/2/3 209/2/3
f 212/2/3 211/2/3 209/2/3
f 213/2/3 211/2/3 212/2/3
f 216/2/3 215/2/3 214/2/3
f 217/2/3 216/2/3 214/2/3
f 218/2/3 216/2/3 217/2/3
f 219/1/3 218/1/3 217/1/3
f 220/1/3 218/1/3 219/1/3
f 221/2/3 220/2/3 219/2/3
f 222/2/3 221/2/3 219/2/3
f 223/2/3 221/2/3 222/2/3
f 225/2/3 224/2/3 223/2/3
f 226/2/3 224/2/3 225/2/3
f 229/1/3 228/1/3 227/1/3
f 230/1/3 228/1/3 229/1/3
f 231/1/4 232/1/4 233/1/4
f 233/1/4 232/1/4 234/1/4
f 235/2/4 236/2/4 237/2/4
f 235/2/4 237/2/4 238/2/4
f 238/2/4 237/2/4 239/2/4
f 238/1/4 239/1/4 240/1/4
f 240/1/4 239/1/4 241/1/4
f 240/2/4 241/2/4 242/2/4
f 240/2/4 242/2/4 243/2/4
f 243/2/4 242/2/4 244/2/4
f 244/2/4 245/2/4 246/2/4
f 246/2/4 245/2/4 247/2/4
f 248/2/4 249/2/4 250/2/4
f 248/2/4 250/2/4 251/2/4
f 251/2/4 250/2/4 252/2/4
f 251/1/4 252/1/4 253/1/4
f 253/1/4 252/1/4 254/1/4
f 253/2/4 254/2/4 255/2/4
f 253/2/4 255/2/4 256/2/4
f 256/2/4 255/2/4 257/2/4
f 260/2/4 261/2/4 262/2/4
f 260/2/4 262/2/4 263/2/4
f 263/2/4 262/2/4 264/2/4
f 260/2/4 263/2/4 265/2/4
f 263/1/4 264/1/4 266/1/4
f 265/2/4 263/2/4 266/2/4
f 258/1/4 259/1/4 267/1/4
f 267/1/4 259/1/4 268/1/4
f 265/1/4 266/1/4 269/1/4
f 266/1/4 264/1/4 270/1/4
f 269/1/4 266/1/4 270/1/4
f 269/2/4 270/2/4 271/2/4
f 270/1/4 264/1/4 271/1/4
f 271/1/4 264/1/4 272/1/4
f 272/1/4 264/1/4 273/1/4
f 271/2/4 272/2/4 274/2/4
f 272/1/4 273/1/4 274/1/4
f 274/1/4 273/1/4 275/1/4
f 269/2/4 271/2/4 276/2/4
f 271/2/4 274/2/4 276/2/4
f 274/2/4 275/2/4 276/2/4
f 276/2/4 275/2/4 277/2/4
f 278/2/4 279/2/4 280/2/4
f 280/2/4 279/2/4 281/2/4
f 282/1/4 283/1/4 285/1/4
f 284/1/4 285/1/4 286/1/4
f 285/1/4 283/1/4 287/1/4
f 286/1/4 285/1/4 287/1/4
f 284/1/4 286/1/4 289/1/4
f 288/1/4 289/1/4 290/1/4
f 289/1/4 286/1/4 291/1/4
f 290/1/4 289/1/4 291/1/4
f 288/1/4 290/1/4 295/1/4
f 294/1/4 295/1/4 296/1/4
f 295/1/4 290/1/4 297/1/4
f 296/1/4 295/1/4 297/1/4
f 292/1/4 293/1/4 298/1/4
f 298/1/4 293/1/4 299/1/4
f 294/1/4 296/1/4 300/1/4
f 300/1/4 296/1/4 301/1/4
f 299/1/4 300/1/4 302/1/4
f 302/1/4 300/1/4 303/1/4
f 304/2/4 305/2/4 307/2/4
f 305/1/4 306/1/4 308/1/4
f 307/2/4 305/2/4 308/2/4
f 307/1/4 308/1/4 310/1/4
f 308/1/4 306/1/4 311/1/4
f 309/1/4 310/1/4 311/1/4
f 310/1/4 308/1/4 311/1/4
f 311/1/4 306/1/4 312/1/4
f 309/1/4 311/1/4 313/1/4
f 313/1/4 311/1/4 314/1/4
f 309/1/4 313/1/4 315/1/4
f 315/1/4 313/1/4 316/1/4
f 316/1/4 313/1/4 317/1/4
f 317/1/4 313/1/4 318/1/4
f 316/1/4 317/1/4 319/1/4
f 319/1/4 317/1/4 320/1/4
f 325/1/5 323/1/5 322/1/5
f 326/2/5 324/2/5 323/2/5
f 326/1/5 323/1/5 325/1/5
f 327/1/5 325/1/5 322/1/5
f 328/2/5 326/2/5 325/2/5
f 328/1/5 325/1/5 327/1/5
f 329/2/5 322/2/5 321/2/5
f 329/1/5 327/1/5 322/1/5
f 330/1/5 327/1/5 329/1/5
f 331/1/5 327/1/5 330/1/5
f 332/2/5 328/2/5 327/2/5
f 332/1/5 327/1/5 331/1/5
f 333/1/5 331/1/5 330/1/5
f 333/2/5 330/2/5 329/2/5
f 334/1/5 331/1/5 333/1/5
f 335/1/5 331/1/5 334/1/5
f 336/2/5 332/2/5 331/2/5
f 336/1/5 331/1/5 335/1/5
f 337/1/5 335/1/5 334/1/5
f 337/2/5 334/2/5 333/2/5
f 338/1/5 335/1/5 337/1/5
f 339/1/5 335/1/5 338/1/5
f 340/2/5 336/2/5 335/2/5
f 340/1/5 335/1/5 339/1/5
f 341/1/5 339/1/5 338/1/5
f 341/2/5 338/2/5 337/2/5
f 342/1/5 339/1/5 341/1/5
f 343/1/5 339/1/5 342/1/5
f 344/2/5 340/2/5 339/2/5
f 344/1/5 339/1/5 343/1/5
f 345/1/5 343/1/5 342/1/5
f 345/2/5 342/2/5 341/2/5
f 346/1/5 343/1/5 345/1/5
f 347/1/5 343/1/5 346/1/5
f 348/2/5 344/2/5 343/2/5
f 348/1/5 343/1/5 347/1/5
f 349/1/5 347/1/5 346/1/5
f 349/2/5 346/2/5 345/2/5
f 350/1/5 347/1/5 349/1/5
f 351/1/5 347/1/5 350/1/5
f 352/1/5 347/1/5 351/1/5
f 353/1/5 347/1/5 352/1/5
f 354/2/5 348/2/5 347/2/5
f 354/1/5 347/1/5 353/1/5
f 355/2/5 350/2/5 349/2/5
f 355/1/5 351/1/5 350/1/5
f 356/2/5 352/2/5 351/2/5
f 356/1/5 351/1/5 355/1/5
f 357/1/5 353/1/5 352/1/5
f 357/2/5 352/2/5 356/2/5
f 358/2/5 354/2/5 353/2/5
f 358/1/5 353/1/5 357/1/5
f 359/2/5 356/2/5 355/2/5
f 359/2/5 357/2/5 356/2/5
f 359/2/5 358/2/5 357/2/5
f 359/2/5 355/2/5 349/2/5
f 360/2/5 358/2/5 359/2/5
f 361/2/5 358/2/5 360/2/5
f 362/2/5 354/2/5 358/2/5
f 362/2/5 358/2/5 361/2/5
f 363/2/5 349/2/5 345/2/5
f 363/2/5 359/2/5 349/2/5
f 364/1/5 360/1/5 359/1/5
f 364/2/5 359/2/5 363/2/5
f 365/2/5 361/2/5 360/2/5
f 365/1/5 360/1/5 364/1/5
f 366/1/5 362/1/5 361/1/5
f 366/2/5 361/2/5 365/2/5
f 367/2/5 354/2/5 362/2/5
f 367/1/5 362/1/5 366/1/5
f 368/2/5 348/2/5 354/2/5
f 368/2/5 354/2/5 367/2/5
f 369/2/5 345/2/5 341/2/5
f 369/2/5 363/2/5 345/2/5
f 370/1/5 364/1/5 363/1/5
f 370/2/5 363/2/5 369/2/5
f 370/1/5 366/1/5 365/1/5
f 370/1/5 368/1/5 367/1/5
f 370/1/5 365/1/5 364/1/5
f 370/1/5 367/1/5 366/1/5
f 371/2/5 348/2/5 368/2/5
f 371/1/5 368/1/5 370/1/5
f 372/2/5 344/2/5 348/2/5
f 372/2/5 348/2/5 371/2/5
f 373/2/5 341/2/5 337/2/5
f 373/2/5 369/2/5 341/2/5
f 374/1/5 371/1/5 370/1/5
f 374/2/5 369/2/5 373/2/5
f 374/1/5 370/1/5 369/1/5
f 374/1/5 372/1/5 371/1/5
f 375/2/5 344/2/5 372/2/5
f 375/1/5 372/1/5 374/1/5
f 376/2/5 340/2/5 344/2/5
f 376/2/5 344/2/5 375/2/5
f 377/2/5 337/2/5 333/2/5
f 377/2/5 373/2/5 337/2/5
f 378/1/5 375/1/5 374/1/5
f 378/2/5 373/2/5 377/2/5
f 378/1/5 374/1/5 373/1/5
f 378/1/5 376/1/5 375/1/5
f 379/2/5 340/2/5 376/2/5
f 379/1/5 376/1/5 378/1/5
f 380/2/5 336/2/5 340/2/5
f 380/2/5 340/2/5 379/2/5
f 381/2/5 333/2/5 329/2/5
f 381/2/5 377/2/5 333/2/5
f 382/1/5 379/1/5 378/1/5
f 382/2/5 377/2/5 381/2/5
f 382/1/5 378/1/5 377/1/5
f 382/1/5 380/1/5 379/1/5
f 383/2/5 336/2/5 380/2/5
f 383/1/5 380/1/5 382/1/5
f 384/2/5 332/2/5 336/2/5
f 384/2/5 336/2/5 383/2/5
f 385/2/5 329/2/5 321/2/5
f 385/2/5 381/2/5 329/2/5
f 386/1/5 383/1/5 382/1/5
f 386/2/5 381/2/5 385/2/5
f 386/1/5 382/1/5 381/1/5
f 386/1/5 384/1/5 383/1/5
f 387/2/5 332/2/5 384/2/5
f 387/1/5 384/1/5 386/1/5
f 388/2/5 328/2/5 332/2/5
f 388/2/5 332/2/5 387/2/5
f 389/1/5 387/1/5 386/1/5
f 389/2/5 328/2/5 388/2/5
f 389/1/5 388/1/5 387/1/5
f 389/1/5 386/1/5 385/1/5
f 390/2/5 326/2/5 328/2/5
f 390/2/5 328/2/5 389/2/5
f 391/1/5 390/1/5 389/1/5
f 391/2/5 326/2/5 390/2/5
f 392/2/5 324/2/5 326/2/5
f 392/2/5 326/2/5 391/2/5
f 393/2/5 385/2/5 321/2/5
f 394/1/5 389/1/5 385/1/5
f 394/2/5 385/2/5 393/2/5
f 394/1/5 391/1/5 389/1/5
f 394/1/5 392/1/5 391/1/5
f 395/2/5 324/2/5 392/2/5
f 395/1/5 392/1/5 394/1/5
f 396/2/5 324/2/5 395/2/5
f 401/2/5 398/2/5 397/2/5
f 402/1/5 399/1/5 398/1/5
f 402/2/5 398/2/5 401/2/5
f 403/1/5 399/1/5 402/1/5
f 404/1/5 399/1/5 403/1/5
f 405/2/5 400/2/5 399/2/5
f 405/1/5 399/1/5 404/1/5
f 406/2/5 400/2/5 405/2/5
f 413/2/5 407/2/5 406/2/5
f 414/2/5 407/2/5 413/2/5
f 415/2/5 409/2/5 408/2/5
f 416/1/5 412/1/5 411/1/5
f 416/2/5 409/2/5 415/2/5
f 416/1/5 410/1/5 409/1/5
f 416/1/5 411/1/5 410/1/5
f 417/2/5 413/2/5 412/2/5
f 417/1/5 412/1/5 416/1/5
f 418/2/5 413/2/5 417/2/5
f 423/2/5 420/2/5 419/2/5
f 424/1/5 421/1/5 420/1/5
f 424/2/5 420/2/5 423/2/5
f 425/1/5 421/1/5 424/1/5
f 426/1/5 421/1/5 425/1/5
f 427/2/5 422/2/5 421/2/5
f 427/1/5 421/1/5 426/1/5
f 428/2/5 422/2/5 427/2/5
f 435/2/5 430/2/5 429/2/5
f 436/1/5 431/1/5 430/1/5
f 436/2/5 430/2/5 435/2/5
f 436/1/5 432/1/5 431/1/5
f 436/1/5 433/1/5 432/1/5
f 437/2/5 434/2/5 433/2/5
f 437/1/5 433/1/5 436/1/5
f 438/2/5 434/2/5 437/2/5
f 441/1/5 440/1/5 439/1/5
f 442/1/5 440/1/5 441/1/5
f 443/1/5 440/1/5 442/1/5
f 445/1/5 443/1/5 442/1/5
f 445/1/5 444/1/5 443/1/5
f 446/1/5 444/1/5 445/1/5
f 447/1/5 445/1/5 442/1/5
f 448/2/5 446/2/5 445/2/5
f 448/1/5 445/1/5 447/1/5
f 449/1/5 447/1/5 442/1/5
f 450/2/5 448/2/5 447/2/5
f 450/1/5 447/1/5 449/1/5
f 451/1/5 449/1/5 442/1/5
f 452/2/5 450/2/5 449/2/5
f 452/1/5 449/1/5 451/1/5
f 453/2/5 442/2/5 441/2/5
f 454/1/5 451/1/5 442/1/5
f 454/2/5 442/2/5 453/2/5
f 455/1/5 451/1/5 454/1/5
f 456/2/5 452/2/5 451/2/5
f 456/1/5 451/1/5 455/1/5
f 457/2/5 450/2/5 452/2/5
f 457/2/5 452/2/5 456/2/5
f 458/2/5 446/2/5 448/2/5
f 458/2/5 450/2/5 457/2/5
f 458/2/5 448/2/5 450/2/5
f 459/2/5 446/2/5 458/2/5
f 460/2/5 446/2/5 459/2/5
f 462/2/5 446/2/5 460/2/5
f 468/2/5 462/2/5 461/2/5
f 469/2/5 467/2/5 466/2/5
f 469/2/5 468/2/5 467/2/5
f 469/1/5 465/1/5 464/1/5
f 469/1/5 466/1/5 465/1/5
f 470/2/5 468/2/5 469/2/5
f 471/1/5 470/1/5 469/1/5
f 471/2/5 468/2/5 470/2/5
f 472/2/5 468/2/5 471/2/5
f 473/1/5 472/1/5 471/1/5
f 473/2/5 468/2/5 472/2/5
f 474/2/5 468/2/5 473/2/5
f 475/1/5 474/1/5 473/1/5
f 475/2/5 468/2/5 474/2/5
f 476/2/5 446/2/5 462/2/5
f 476/2/5 468/2/5 475/2/5
f 476/2/5 462/2/5 468/2/5
f 477/2/5 464/2/5 463/2/5
f 478/1/5 475/1/5 473/1/5
f 478/2/5 464/2/5 477/2/5
f 478/1/5 473/1/5 471/1/5
f 478/1/5 476/1/5 475/1/5
f 478/1/5 471/1/5 469/1/5
f 478/1/5 469/1/5 464/1/5
f 479/1/5 476/1/5 478/1/5
f 480/1/5 476/1/5 479/1/5
f 481/1/5 478/1/5 477/1/5
f 481/1/5 479/1/5 478/1/5
f 482/1/5 479/1/5 481/1/5
f 485/1/5 484/1/5 483/1/5
f 486/1/5 484/1/5 485/1/5
f 488/1/5 487/1/5 486/1/5
f 489/1/5 487/1/5 488/1/5
f 490/2/5 489/2/5 488/2/5
f 491/2/5 489/2/5 490/2/5
f 493/1/5 491/1/5 490/1/5
f 494/1/5 491/1/5 493/1/5
f 495/1/5 493/1/5 492/1/5
f 496/1/5 493/1/5 495/1/5
f 499/2/5 498/2/5 497/2/5
f 500/2/5 498/2/5 499/2/5
f 504/2/5 502/2/5 501/2/5
f 505/2/5 502/2/5 504/2/5
f 506/1/5 503/1/5 502/1/5
f 506/2/5 502/2/5 505/2/5
f 507/1/5 503/1/5 506/1/5
f 508/1/5 505/1/5 504/1/5
f 508/2/5 504/2/5 501/2/5
f 509/2/5 507/2/5 506/2/5
f 509/1/5 505/1/5 508/1/5
f 509/2/5 506/2/5 505/2/5
f 510/1/5 503/1/5 507/1/5
f 510/2/5 507/2/5 509/2/5
f 511/1/5 503/1/5 510/1/5
f 512/2/5 509/2/5 508/2/5
f 512/2/5 508/2/5 501/2/5
f 512/2/5 511/2/5 510/2/5
f 512/2/5 510/2/5 509/2/5
f 513/2/5 511/2/5 512/2/5
f 516/2/5 515/2/5 514/2/5
f 517/2/5 515/2/5 516/2/5
f 518/2/5 515/2/5 517/2/5
f 519/2/5 515/2/5 518/2/5
f 520/2/5 516/2/5 514/2/5
f 520/1/5 517/1/5 516/1/5
f 521/2/5 518/2/5 517/2/5
f 521/1/5 517/1/5 520/1/5
f 522/2/5 518/2/5 521/2/5
f 523/1/5 519/1/5 518/1/5
f 523/2/5 518/2/5 522/2/5
f 524/2/5 522/2/5 521/2/5
f 524/2/5 520/2/5 514/2/5
f 524/2/5 521/2/5 520/2/5
f 525/1/5 523/1/5 522/1/5
f 525/2/5 522/2/5 524/2/5
f 526/1/5 519/1/5 523/1/5
f 526/1/5 523/1/5 525/1/5
f 527/1/6 528/1/6 529/1/6
f 529/1/6 528/1/6 530/1/6
f 530/1/6 531/1/6 533/1/6
f 533/1/6 531/1/6 534/1/6
f 532/1/6 533/1/6 535/1/6
f 535/1/6 533/1/6 536/1/6
f 537/1/6 538/1/6 539/1/6
f 539/1/6 538/1/6 540/1/6
f 541/1/6 542/1/6 543/1/6
f 543/1/6 542/1/6 544/1/6
f 545/1/6 546/1/6 547/1/6
f 547/1/6 546/1/6 548/1/6
f 549/1/6 550/1/6 551/1/6
f 551/1/6 550/1/6 552/1/6
f 553/1/6 554/1/6 555/1/6
f 555/1/6 554/1/6 556/1/6
f 557/1/6 558/1/6 559/1/6
f 559/1/6 558/1/6 560/1/6
f 561/1/6 562/1/6 563/1/6
f 563/1/6 562/1/6 564/1/6
f 565/1/6 566/1/6 567/1/6
f 567/1/6 566/1/6 568/1/6
f 569/1/6 570/1/6 571/1/6
f 571/1/6 570/1/6 572/1/6
f 573/1/6 574/1/6 575/1/6
f 575/1/6 574/1/6 576/1/6
f 576/1/6 574/1/6 578/1/6
f 577/1/6 578/1/6 579/1/6
f 578/1/6 574/1/6 580/1/6
f 579/1/6 578/1/6 580/1/6
f 581/1/6 582/1/6 583/1/6
f 583/1/6 582/1/6 584/1/6
f 584/1/6 582/1/6 586/1/6
f 585/1/6 586/1/6 587/1/6
f 586/1/6 582/1/6 588/1/6
f 587/1/6 586/1/6 588/1/6
f 589/1/6 590/1/6 591/1/6
f 591/1/6 590/1/6 592/1/6
